{"glyphs":{"A":{"ha":1061,"x_min":0,"x_max":0,"o":"m 237 490 l 139 589 l 139 392 z m 237 294 l 139 392 l 139 196 z m 237 98 l 139 196 l 139 -1 z m 434 687 l 335 785 l 335 589 z m 434 294 l 335 392 l 335 196 z m 630 687 l 532 785 l 532 589 z m 630 294 l 532 392 l 532 196 z m 826 687 l 728 785 l 728 589 z m 826 490 l 728 589 l 728 392 z m 826 294 l 728 392 l 728 196 z m 826 98 l 728 196 l 728 -1 z m 434 490 l 335 589 l 335 392 z m 434 98 l 335 196 l 335 -1 z m 237 687 l 139 589 l 335 589 z m 237 490 l 139 392 l 335 392 z m 237 294 l 139 196 l 335 196 z m 237 98 l 139 -1 l 335 -1 z m 434 687 l 335 589 l 532 589 z m 434 294 l 335 196 l 532 196 z m 630 687 l 532 589 l 728 589 z m 630 294 l 532 196 l 728 196 z m 826 687 l 728 589 l 925 589 z m 826 490 l 728 392 l 925 392 z m 826 294 l 728 196 l 925 196 z m 826 98 l 728 -1 l 925 -1 z m 434 490 l 335 392 l 532 392 z m 434 98 l 335 -1 l 532 -1 z m 237 687 l 335 589 l 335 785 z m 237 490 l 335 392 l 335 589 z m 237 294 l 335 196 l 335 392 z m 237 98 l 335 -1 l 335 196 z m 434 687 l 532 589 l 532 785 z m 434 294 l 532 196 l 532 392 z m 630 687 l 728 589 l 728 785 z m 630 294 l 728 196 l 728 392 z m 826 490 l 925 392 l 925 589 z m 826 294 l 925 196 l 925 392 z m 826 98 l 925 -1 l 925 196 z m 434 490 l 532 392 l 532 589 z m 434 98 l 532 -1 l 532 196 z m 237 490 l 335 589 l 139 589 z m 237 294 l 335 392 l 139 392 z m 237 98 l 335 196 l 139 196 z m 434 687 l 532 785 l 335 785 z m 434 294 l 532 392 l 335 392 z m 630 687 l 728 785 l 532 785 z m 630 294 l 728 392 l 532 392 z m 826 490 l 925 589 l 728 589 z m 826 294 l 925 392 l 728 392 z m 826 98 l 925 196 l 728 196 z m 434 490 l 532 589 l 335 589 z m 434 98 l 532 196 l 335 196 z "},"B":{"ha":1061,"x_min":0,"x_max":0,"o":"m 237 687 l 139 785 l 139 589 z m 237 490 l 139 589 l 139 392 z m 237 294 l 139 392 l 139 196 z m 237 98 l 139 196 l 139 -1 z m 434 687 l 335 785 l 335 589 z m 434 490 l 335 589 l 335 392 z m 434 294 l 335 392 l 335 196 z m 434 98 l 335 196 l 335 -1 z m 630 687 l 532 785 l 532 589 z m 630 98 l 532 196 l 532 -1 z m 826 687 l 728 785 l 728 589 z m 826 490 l 728 589 l 728 392 z m 826 294 l 728 392 l 728 196 z m 826 98 l 728 196 l 728 -1 z m 237 687 l 139 589 l 335 589 z m 237 490 l 139 392 l 335 392 z m 237 294 l 139 196 l 335 196 z m 237 98 l 139 -1 l 335 -1 z m 434 687 l 335 589 l 532 589 z m 434 490 l 335 392 l 532 392 z m 434 294 l 335 196 l 532 196 z m 434 98 l 335 -1 l 532 -1 z m 630 687 l 532 589 l 728 589 z m 630 490 l 532 392 l 728 392 z m 630 98 l 532 -1 l 728 -1 z m 826 687 l 728 589 l 925 589 z m 826 294 l 728 196 l 925 196 z m 237 687 l 335 589 l 335 785 z m 237 490 l 335 392 l 335 589 z m 237 294 l 335 196 l 335 392 z m 237 98 l 335 -1 l 335 196 z m 434 687 l 532 589 l 532 785 z m 434 490 l 532 392 l 532 589 z m 434 294 l 532 196 l 532 392 z m 434 98 l 532 -1 l 532 196 z m 630 687 l 728 589 l 728 785 z m 630 490 l 728 392 l 728 589 z m 630 294 l 728 196 l 728 392 z m 630 98 l 728 -1 l 728 196 z m 237 687 l 335 785 l 139 785 z m 237 490 l 335 589 l 139 589 z m 237 294 l 335 392 l 139 392 z m 237 98 l 335 196 l 139 196 z m 434 687 l 532 785 l 335 785 z m 434 490 l 532 589 l 335 589 z m 434 294 l 532 392 l 335 392 z m 434 98 l 532 196 l 335 196 z m 630 687 l 728 785 l 532 785 z m 630 294 l 728 392 l 532 392 z m 630 98 l 728 196 l 532 196 z m 826 490 l 925 589 l 728 589 z m 826 98 l 925 196 l 728 196 z "},"C":{"ha":1061,"x_min":0,"x_max":0,"o":"m 237 490 l 139 589 l 139 392 z m 237 294 l 139 392 l 139 196 z m 434 687 l 335 785 l 335 589 z m 434 490 l 335 589 l 335 392 z m 434 294 l 335 392 l 335 196 z m 434 98 l 335 196 l 335 -1 z m 826 687 l 728 785 l 728 589 z m 826 98 l 728 196 l 728 -1 z m 237 687 l 139 589 l 335 589 z m 237 490 l 139 392 l 335 392 z m 237 294 l 139 196 l 335 196 z m 434 687 l 335 589 l 532 589 z m 434 490 l 335 392 l 532 392 z m 434 294 l 335 196 l 532 196 z m 434 98 l 335 -1 l 532 -1 z m 630 98 l 532 -1 l 728 -1 z m 826 687 l 728 589 l 925 589 z m 826 294 l 728 196 l 925 196 z m 826 98 l 728 -1 l 925 -1 z m 237 687 l 335 589 l 335 785 z m 237 490 l 335 392 l 335 589 z m 237 294 l 335 196 l 335 392 z m 237 98 l 335 -1 l 335 196 z m 434 687 l 532 589 l 532 785 z m 434 490 l 532 392 l 532 589 z m 434 294 l 532 196 l 532 392 z m 434 98 l 532 -1 l 532 196 z m 630 687 l 728 589 l 728 785 z m 630 98 l 728 -1 l 728 196 z m 826 687 l 925 589 l 925 785 z m 826 490 l 925 392 l 925 589 z m 826 294 l 925 196 l 925 392 z m 826 98 l 925 -1 l 925 196 z m 237 490 l 335 589 l 139 589 z m 237 294 l 335 392 l 139 392 z m 237 98 l 335 196 l 139 196 z m 434 687 l 532 785 l 335 785 z m 434 490 l 532 589 l 335 589 z m 434 294 l 532 392 l 335 392 z m 434 98 l 532 196 l 335 196 z m 630 687 l 728 785 l 532 785 z m 826 687 l 925 785 l 728 785 z m 826 490 l 925 589 l 728 589 z m 826 98 l 925 196 l 728 196 z "},"D":{"ha":1061,"x_min":0,"x_max":0,"o":"m 237 687 l 139 785 l 139 589 z m 237 490 l 139 589 l 139 392 z m 237 294 l 139 392 l 139 196 z m 237 98 l 139 196 l 139 -1 z m 434 687 l 335 785 l 335 589 z m 434 490 l 335 589 l 335 392 z m 434 294 l 335 392 l 335 196 z m 434 98 l 335 196 l 335 -1 z m 630 687 l 532 785 l 532 589 z m 630 98 l 532 196 l 532 -1 z m 826 687 l 728 785 l 728 589 z m 826 490 l 728 589 l 728 392 z m 826 294 l 728 392 l 728 196 z m 826 98 l 728 196 l 728 -1 z m 237 687 l 139 589 l 335 589 z m 237 490 l 139 392 l 335 392 z m 237 294 l 139 196 l 335 196 z m 237 98 l 139 -1 l 335 -1 z m 434 687 l 335 589 l 532 589 z m 434 490 l 335 392 l 532 392 z m 434 294 l 335 196 l 532 196 z m 434 98 l 335 -1 l 532 -1 z m 630 687 l 532 589 l 728 589 z m 630 294 l 532 196 l 728 196 z m 630 98 l 532 -1 l 728 -1 z m 826 687 l 728 589 l 925 589 z m 826 490 l 728 392 l 925 392 z m 826 294 l 728 196 l 925 196 z m 237 687 l 335 589 l 335 785 z m 237 490 l 335 392 l 335 589 z m 237 294 l 335 196 l 335 392 z m 237 98 l 335 -1 l 335 196 z m 434 687 l 532 589 l 532 785 z m 434 490 l 532 392 l 532 589 z m 434 98 l 532 -1 l 532 196 z m 434 294 l 532 196 l 532 392 z m 630 687 l 728 589 l 728 785 z m 630 490 l 728 392 l 728 589 z m 630 294 l 728 196 l 728 392 z m 630 98 l 728 -1 l 728 196 z m 826 490 l 925 392 l 925 589 z m 826 294 l 925 196 l 925 392 z m 237 687 l 335 785 l 139 785 z m 237 490 l 335 589 l 139 589 z m 237 294 l 335 392 l 139 392 z m 237 98 l 335 196 l 139 196 z m 434 687 l 532 785 l 335 785 z m 434 490 l 532 589 l 335 589 z m 434 98 l 532 196 l 335 196 z m 434 294 l 532 392 l 335 392 z m 630 687 l 728 785 l 532 785 z m 630 490 l 728 589 l 532 589 z m 630 98 l 728 196 l 532 196 z m 826 490 l 925 589 l 728 589 z m 826 294 l 925 392 l 728 392 z m 826 98 l 925 196 l 728 196 z "},"E":{"ha":1061,"x_min":0,"x_max":0,"o":"m 237 687 l 139 785 l 139 589 z m 237 490 l 139 589 l 139 392 z m 237 294 l 139 392 l 139 196 z m 237 98 l 139 196 l 139 -1 z m 434 687 l 335 785 l 335 589 z m 434 490 l 335 589 l 335 392 z m 434 294 l 335 392 l 335 196 z m 434 98 l 335 196 l 335 -1 z m 826 687 l 728 785 l 728 589 z m 826 98 l 728 196 l 728 -1 z m 237 687 l 139 589 l 335 589 z m 237 490 l 139 392 l 335 392 z m 237 294 l 139 196 l 335 196 z m 237 98 l 139 -1 l 335 -1 z m 434 687 l 335 589 l 532 589 z m 434 490 l 335 392 l 532 392 z m 434 294 l 335 196 l 532 196 z m 434 98 l 335 -1 l 532 -1 z m 630 490 l 532 392 l 728 392 z m 630 98 l 532 -1 l 728 -1 z m 826 687 l 728 589 l 925 589 z m 826 294 l 728 196 l 925 196 z m 826 98 l 728 -1 l 925 -1 z m 237 687 l 335 589 l 335 785 z m 237 490 l 335 392 l 335 589 z m 237 294 l 335 196 l 335 392 z m 237 98 l 335 -1 l 335 196 z m 434 687 l 532 589 l 532 785 z m 434 490 l 532 392 l 532 589 z m 434 294 l 532 196 l 532 392 z m 434 98 l 532 -1 l 532 196 z m 630 687 l 728 589 l 728 785 z m 630 490 l 728 392 l 728 589 z m 630 294 l 728 196 l 728 392 z m 630 98 l 728 -1 l 728 196 z m 826 687 l 925 589 l 925 785 z m 826 490 l 925 392 l 925 589 z m 826 294 l 925 196 l 925 392 z m 826 98 l 925 -1 l 925 196 z m 237 687 l 335 785 l 139 785 z m 237 490 l 335 589 l 139 589 z m 237 294 l 335 392 l 139 392 z m 237 98 l 335 196 l 139 196 z m 434 687 l 532 785 l 335 785 z m 434 490 l 532 589 l 335 589 z m 434 294 l 532 392 l 335 392 z m 434 98 l 532 196 l 335 196 z m 630 687 l 728 785 l 532 785 z m 630 294 l 728 392 l 532 392 z m 826 687 l 925 785 l 728 785 z m 826 490 l 925 589 l 728 589 z m 826 98 l 925 196 l 728 196 z "},"F":{"ha":1061,"x_min":0,"x_max":0,"o":"m 237 687 l 139 785 l 139 589 z m 237 490 l 139 589 l 139 392 z m 237 294 l 139 392 l 139 196 z m 237 98 l 139 196 l 139 -1 z m 434 687 l 335 785 l 335 589 z m 434 490 l 335 589 l 335 392 z m 434 294 l 335 392 l 335 196 z m 434 98 l 335 196 l 335 -1 z m 826 687 l 728 785 l 728 589 z m 237 687 l 139 589 l 335 589 z m 237 490 l 139 392 l 335 392 z m 237 294 l 139 196 l 335 196 z m 237 98 l 139 -1 l 335 -1 z m 434 687 l 335 589 l 532 589 z m 434 490 l 335 392 l 532 392 z m 434 294 l 335 196 l 532 196 z m 434 98 l 335 -1 l 532 -1 z m 630 490 l 532 392 l 728 392 z m 826 687 l 728 589 l 925 589 z m 237 687 l 335 589 l 335 785 z m 237 490 l 335 392 l 335 589 z m 237 294 l 335 196 l 335 392 z m 237 98 l 335 -1 l 335 196 z m 434 687 l 532 589 l 532 785 z m 434 490 l 532 392 l 532 589 z m 434 294 l 532 196 l 532 392 z m 434 98 l 532 -1 l 532 196 z m 630 687 l 728 589 l 728 785 z m 630 490 l 728 392 l 728 589 z m 630 294 l 728 196 l 728 392 z m 826 687 l 925 589 l 925 785 z m 826 490 l 925 392 l 925 589 z m 237 687 l 335 785 l 139 785 z m 237 490 l 335 589 l 139 589 z m 237 294 l 335 392 l 139 392 z m 237 98 l 335 196 l 139 196 z m 434 687 l 532 785 l 335 785 z m 434 490 l 532 589 l 335 589 z m 434 294 l 532 392 l 335 392 z m 434 98 l 532 196 l 335 196 z m 630 687 l 728 785 l 532 785 z m 630 294 l 728 392 l 532 392 z m 826 687 l 925 785 l 728 785 z m 826 490 l 925 589 l 728 589 z "},"G":{"ha":1061,"x_min":0,"x_max":0,"o":"m 237 687 l 139 785 l 139 589 z m 237 490 l 139 589 l 139 392 z m 237 294 l 139 392 l 139 196 z m 237 98 l 139 196 l 139 -1 z m 434 687 l 335 785 l 335 589 z m 434 490 l 335 589 l 335 392 z m 434 294 l 335 392 l 335 196 z m 434 98 l 335 196 l 335 -1 z m 630 98 l 532 196 l 532 -1 z m 826 687 l 728 785 l 728 589 z m 630 687 l 532 785 l 532 589 z m 826 294 l 728 392 l 728 196 z m 826 98 l 728 196 l 728 -1 z m 237 687 l 139 589 l 335 589 z m 237 490 l 139 392 l 335 392 z m 237 294 l 139 196 l 335 196 z m 237 98 l 139 -1 l 335 -1 z m 434 687 l 335 589 l 532 589 z m 434 294 l 335 196 l 532 196 z m 434 98 l 335 -1 l 532 -1 z m 630 98 l 532 -1 l 728 -1 z m 826 687 l 728 589 l 925 589 z m 826 294 l 728 196 l 925 196 z m 826 98 l 728 -1 l 925 -1 z m 237 687 l 335 589 l 335 785 z m 237 490 l 335 392 l 335 589 z m 237 294 l 335 196 l 335 392 z m 237 98 l 335 -1 l 335 196 z m 434 687 l 532 589 l 532 785 z m 434 98 l 532 -1 l 532 196 z m 630 687 l 728 589 l 728 785 z m 630 294 l 728 196 l 728 392 z m 630 98 l 728 -1 l 728 196 z m 826 687 l 925 589 l 925 785 z m 826 490 l 925 392 l 925 589 z m 826 294 l 925 196 l 925 392 z m 826 98 l 925 -1 l 925 196 z m 237 687 l 335 785 l 139 785 z m 237 490 l 335 589 l 139 589 z m 237 294 l 335 392 l 139 392 z m 237 98 l 335 196 l 139 196 z m 434 687 l 532 785 l 335 785 z m 434 490 l 532 589 l 335 589 z m 434 98 l 532 196 l 335 196 z m 630 687 l 728 785 l 532 785 z m 630 294 l 728 392 l 532 392 z m 826 687 l 925 785 l 728 785 z m 826 490 l 925 589 l 728 589 z m 826 294 l 925 392 l 728 392 z m 826 98 l 925 196 l 728 196 z "},"H":{"ha":1061,"x_min":0,"x_max":0,"o":"m 237 687 l 139 785 l 139 589 z m 237 490 l 139 589 l 139 392 z m 237 294 l 139 392 l 139 196 z m 237 98 l 139 196 l 139 -1 z m 434 687 l 335 785 l 335 589 z m 434 490 l 335 589 l 335 392 z m 434 294 l 335 392 l 335 196 z m 434 98 l 335 196 l 335 -1 z m 826 687 l 728 785 l 728 589 z m 826 490 l 728 589 l 728 392 z m 826 294 l 728 392 l 728 196 z m 826 98 l 728 196 l 728 -1 z m 237 687 l 139 589 l 335 589 z m 237 490 l 139 392 l 335 392 z m 237 294 l 139 196 l 335 196 z m 237 98 l 139 -1 l 335 -1 z m 434 687 l 335 589 l 532 589 z m 434 490 l 335 392 l 532 392 z m 434 294 l 335 196 l 532 196 z m 434 98 l 335 -1 l 532 -1 z m 826 687 l 728 589 l 925 589 z m 826 490 l 728 392 l 925 392 z m 826 294 l 728 196 l 925 196 z m 826 98 l 728 -1 l 925 -1 z m 237 687 l 335 589 l 335 785 z m 237 490 l 335 392 l 335 589 z m 237 294 l 335 196 l 335 392 z m 237 98 l 335 -1 l 335 196 z m 434 687 l 532 589 l 532 785 z m 434 490 l 532 392 l 532 589 z m 434 294 l 532 196 l 532 392 z m 434 98 l 532 -1 l 532 196 z m 630 294 l 728 196 l 728 392 z m 826 687 l 925 589 l 925 785 z m 826 490 l 925 392 l 925 589 z m 826 294 l 925 196 l 925 392 z m 826 98 l 925 -1 l 925 196 z m 237 687 l 335 785 l 139 785 z m 237 490 l 335 589 l 139 589 z m 237 294 l 335 392 l 139 392 z m 237 98 l 335 196 l 139 196 z m 434 687 l 532 785 l 335 785 z m 434 490 l 532 589 l 335 589 z m 434 294 l 532 392 l 335 392 z m 434 98 l 532 196 l 335 196 z m 630 294 l 728 392 l 532 392 z m 826 687 l 925 785 l 728 785 z m 826 490 l 925 589 l 728 589 z m 826 294 l 925 392 l 728 392 z m 826 98 l 925 196 l 728 196 z "},"I":{"ha":669,"x_min":0,"x_max":0,"o":"m 237 490 l 139 589 l 139 392 z m 237 294 l 139 392 l 139 196 z m 237 98 l 139 196 l 139 -1 z m 434 490 l 335 589 l 335 392 z m 434 687 l 335 785 l 335 589 z m 434 294 l 335 392 l 335 196 z m 434 98 l 335 196 l 335 -1 z m 237 490 l 139 392 l 335 392 z m 237 294 l 139 196 l 335 196 z m 237 98 l 139 -1 l 335 -1 z m 434 490 l 335 392 l 532 392 z m 434 294 l 335 196 l 532 196 z m 434 98 l 335 -1 l 532 -1 z m 237 490 l 335 392 l 335 589 z m 237 294 l 335 196 l 335 392 z m 237 98 l 335 -1 l 335 196 z m 434 490 l 532 392 l 532 589 z m 237 687 l 335 589 l 335 785 z m 434 294 l 532 196 l 532 392 z m 434 98 l 532 -1 l 532 196 z m 237 490 l 335 589 l 139 589 z m 237 294 l 335 392 l 139 392 z m 237 98 l 335 196 l 139 196 z m 434 490 l 532 589 l 335 589 z m 237 687 l 335 785 l 139 785 z m 434 687 l 532 785 l 335 785 z m 434 294 l 532 392 l 335 392 z m 434 98 l 532 196 l 335 196 z "},"J":{"ha":1061,"x_min":0,"x_max":0,"o":"m 237 294 l 139 392 l 139 196 z m 237 98 l 139 196 l 139 -1 z m 434 98 l 335 196 l 335 -1 z m 630 687 l 532 785 l 532 589 z m 630 490 l 532 589 l 532 392 z m 630 294 l 532 392 l 532 196 z m 630 98 l 532 196 l 532 -1 z m 826 687 l 728 785 l 728 589 z m 826 490 l 728 589 l 728 392 z m 826 294 l 728 392 l 728 196 z m 826 98 l 728 196 l 728 -1 z m 237 294 l 139 196 l 335 196 z m 237 98 l 139 -1 l 335 -1 z m 434 98 l 335 -1 l 532 -1 z m 630 687 l 532 589 l 728 589 z m 630 490 l 532 392 l 728 392 z m 630 294 l 532 196 l 728 196 z m 630 98 l 532 -1 l 728 -1 z m 826 687 l 728 589 l 925 589 z m 826 490 l 728 392 l 925 392 z m 826 294 l 728 196 l 925 196 z m 826 98 l 728 -1 l 925 -1 z m 237 98 l 335 -1 l 335 196 z m 630 687 l 728 589 l 728 785 z m 630 490 l 728 392 l 728 589 z m 630 294 l 728 196 l 728 392 z m 630 98 l 728 -1 l 728 196 z m 826 687 l 925 589 l 925 785 z m 434 687 l 532 589 l 532 785 z m 826 490 l 925 392 l 925 589 z m 826 294 l 925 196 l 925 392 z m 826 98 l 925 -1 l 925 196 z m 237 98 l 335 196 l 139 196 z m 630 687 l 728 785 l 532 785 z m 630 490 l 728 589 l 532 589 z m 630 294 l 728 392 l 532 392 z m 630 98 l 728 196 l 532 196 z m 826 687 l 925 785 l 728 785 z m 434 687 l 532 785 l 335 785 z m 826 490 l 925 589 l 728 589 z m 826 294 l 925 392 l 728 392 z m 826 98 l 925 196 l 728 196 z "},"K":{"ha":1061,"x_min":0,"x_max":0,"o":"m 237 687 l 139 785 l 139 589 z m 237 490 l 139 589 l 139 392 z m 237 294 l 139 392 l 139 196 z m 237 98 l 139 196 l 139 -1 z m 434 687 l 335 785 l 335 589 z m 434 490 l 335 589 l 335 392 z m 826 490 l 728 589 l 728 392 z m 434 294 l 335 392 l 335 196 z m 434 98 l 335 196 l 335 -1 z m 826 294 l 728 392 l 728 196 z m 237 687 l 139 589 l 335 589 z m 237 490 l 139 392 l 335 392 z m 237 294 l 139 196 l 335 196 z m 237 98 l 139 -1 l 335 -1 z m 434 687 l 335 589 l 532 589 z m 434 490 l 335 392 l 532 392 z m 630 490 l 532 392 l 728 392 z m 826 687 l 728 589 l 925 589 z m 826 490 l 728 392 l 925 392 z m 434 294 l 335 196 l 532 196 z m 434 98 l 335 -1 l 532 -1 z m 826 294 l 728 196 l 925 196 z m 237 687 l 335 589 l 335 785 z m 237 490 l 335 392 l 335 589 z m 237 294 l 335 196 l 335 392 z m 237 98 l 335 -1 l 335 196 z m 434 687 l 532 589 l 532 785 z m 434 490 l 532 392 l 532 589 z m 630 490 l 728 392 l 728 589 z m 826 687 l 925 589 l 925 785 z m 826 490 l 925 392 l 925 589 z m 434 294 l 532 196 l 532 392 z m 434 98 l 532 -1 l 532 196 z m 630 294 l 728 196 l 728 392 z m 826 294 l 925 196 l 925 392 z m 826 98 l 925 -1 l 925 196 z m 237 687 l 335 785 l 139 785 z m 237 490 l 335 589 l 139 589 z m 237 294 l 335 392 l 139 392 z m 237 98 l 335 196 l 139 196 z m 434 687 l 532 785 l 335 785 z m 434 490 l 532 589 l 335 589 z m 826 490 l 925 589 l 728 589 z m 434 294 l 532 392 l 335 392 z m 434 98 l 532 196 l 335 196 z m 630 294 l 728 392 l 532 392 z m 826 294 l 925 392 l 728 392 z m 826 98 l 925 196 l 728 196 z "},"L":{"ha":1061,"x_min":0,"x_max":0,"o":"m 237 687 l 139 785 l 139 589 z m 237 490 l 139 589 l 139 392 z m 237 294 l 139 392 l 139 196 z m 237 98 l 139 196 l 139 -1 z m 434 687 l 335 785 l 335 589 z m 434 490 l 335 589 l 335 392 z m 434 294 l 335 392 l 335 196 z m 434 98 l 335 196 l 335 -1 z m 826 98 l 728 196 l 728 -1 z m 237 687 l 139 589 l 335 589 z m 237 490 l 139 392 l 335 392 z m 237 294 l 139 196 l 335 196 z m 237 98 l 139 -1 l 335 -1 z m 434 687 l 335 589 l 532 589 z m 434 490 l 335 392 l 532 392 z m 434 294 l 335 196 l 532 196 z m 434 98 l 335 -1 l 532 -1 z m 630 98 l 532 -1 l 728 -1 z m 826 294 l 728 196 l 925 196 z m 826 98 l 728 -1 l 925 -1 z m 237 687 l 335 589 l 335 785 z m 237 490 l 335 392 l 335 589 z m 237 294 l 335 196 l 335 392 z m 237 98 l 335 -1 l 335 196 z m 434 687 l 532 589 l 532 785 z m 434 490 l 532 392 l 532 589 z m 434 294 l 532 196 l 532 392 z m 434 98 l 532 -1 l 532 196 z m 630 98 l 728 -1 l 728 196 z m 826 294 l 925 196 l 925 392 z m 826 98 l 925 -1 l 925 196 z m 237 687 l 335 785 l 139 785 z m 237 490 l 335 589 l 139 589 z m 237 294 l 335 392 l 139 392 z m 237 98 l 335 196 l 139 196 z m 434 687 l 532 785 l 335 785 z m 434 490 l 532 589 l 335 589 z m 434 294 l 532 392 l 335 392 z m 434 98 l 532 196 l 335 196 z m 826 98 l 925 196 l 728 196 z "},"M":{"ha":1061,"x_min":0,"x_max":0,"o":"m 237 687 l 139 785 l 139 589 z m 237 490 l 139 589 l 139 392 z m 237 294 l 139 392 l 139 196 z m 237 98 l 139 196 l 139 -1 z m 434 490 l 335 589 l 335 392 z m 434 294 l 335 392 l 335 196 z m 630 294 l 532 392 l 532 196 z m 630 98 l 532 196 l 532 -1 z m 826 490 l 728 589 l 728 392 z m 826 294 l 728 392 l 728 196 z m 826 98 l 728 196 l 728 -1 z m 237 687 l 139 589 l 335 589 z m 237 490 l 139 392 l 335 392 z m 237 294 l 139 196 l 335 196 z m 237 98 l 139 -1 l 335 -1 z m 434 490 l 335 392 l 532 392 z m 434 294 l 335 196 l 532 196 z m 630 490 l 532 392 l 728 392 z m 630 294 l 532 196 l 728 196 z m 826 687 l 728 589 l 925 589 z m 826 490 l 728 392 l 925 392 z m 826 294 l 728 196 l 925 196 z m 826 98 l 728 -1 l 925 -1 z m 237 490 l 335 392 l 335 589 z m 237 294 l 335 196 l 335 392 z m 237 98 l 335 -1 l 335 196 z m 434 294 l 532 196 l 532 392 z m 434 98 l 532 -1 l 532 196 z m 630 490 l 728 392 l 728 589 z m 630 294 l 728 196 l 728 392 z m 826 687 l 925 589 l 925 785 z m 826 490 l 925 392 l 925 589 z m 826 294 l 925 196 l 925 392 z m 826 98 l 925 -1 l 925 196 z m 237 490 l 335 589 l 139 589 z m 237 294 l 335 392 l 139 392 z m 237 98 l 335 196 l 139 196 z m 434 294 l 532 392 l 335 392 z m 434 98 l 532 196 l 335 196 z m 630 294 l 728 392 l 532 392 z m 630 98 l 728 196 l 532 196 z m 826 490 l 925 589 l 728 589 z m 826 294 l 925 392 l 728 392 z m 826 98 l 925 196 l 728 196 z "},"N":{"ha":1061,"x_min":0,"x_max":0,"o":"m 237 687 l 139 785 l 139 589 z m 237 490 l 139 589 l 139 392 z m 237 294 l 139 392 l 139 196 z m 237 98 l 139 196 l 139 -1 z m 434 490 l 335 589 l 335 392 z m 434 294 l 335 392 l 335 196 z m 434 98 l 335 196 l 335 -1 z m 630 687 l 532 785 l 532 589 z m 630 490 l 532 589 l 532 392 z m 826 687 l 728 785 l 728 589 z m 826 490 l 728 589 l 728 392 z m 826 294 l 728 392 l 728 196 z m 237 687 l 139 589 l 335 589 z m 237 490 l 139 392 l 335 392 z m 237 294 l 139 196 l 335 196 z m 237 98 l 139 -1 l 335 -1 z m 434 490 l 335 392 l 532 392 z m 434 294 l 335 196 l 532 196 z m 434 98 l 335 -1 l 532 -1 z m 630 687 l 532 589 l 728 589 z m 630 490 l 532 392 l 728 392 z m 826 687 l 728 589 l 925 589 z m 826 490 l 728 392 l 925 392 z m 826 294 l 728 196 l 925 196 z m 237 490 l 335 392 l 335 589 z m 237 294 l 335 196 l 335 392 z m 237 98 l 335 -1 l 335 196 z m 434 294 l 532 196 l 532 392 z m 434 98 l 532 -1 l 532 196 z m 630 687 l 728 589 l 728 785 z m 630 490 l 728 392 l 728 589 z m 630 294 l 728 196 l 728 392 z m 826 687 l 925 589 l 925 785 z m 826 490 l 925 392 l 925 589 z m 826 294 l 925 196 l 925 392 z m 826 98 l 925 -1 l 925 196 z m 237 490 l 335 589 l 139 589 z m 237 294 l 335 392 l 139 392 z m 237 98 l 335 196 l 139 196 z m 434 294 l 532 392 l 335 392 z m 434 98 l 532 196 l 335 196 z m 630 687 l 728 785 l 532 785 z m 630 490 l 728 589 l 532 589 z m 630 294 l 728 392 l 532 392 z m 826 687 l 925 785 l 728 785 z m 826 490 l 925 589 l 728 589 z m 826 294 l 925 392 l 728 392 z m 826 98 l 925 196 l 728 196 z "},"O":{"ha":1061,"x_min":0,"x_max":0,"o":"m 237 490 l 139 589 l 139 392 z m 237 294 l 139 392 l 139 196 z m 434 687 l 335 785 l 335 589 z m 434 490 l 335 589 l 335 392 z m 434 294 l 335 392 l 335 196 z m 434 98 l 335 196 l 335 -1 z m 630 687 l 532 785 l 532 589 z m 630 98 l 532 196 l 532 -1 z m 826 687 l 728 785 l 728 589 z m 826 490 l 728 589 l 728 392 z m 826 294 l 728 392 l 728 196 z m 826 98 l 728 196 l 728 -1 z m 237 687 l 139 589 l 335 589 z m 237 490 l 139 392 l 335 392 z m 237 294 l 139 196 l 335 196 z m 434 687 l 335 589 l 532 589 z m 434 294 l 335 196 l 532 196 z m 434 98 l 335 -1 l 532 -1 z m 630 687 l 532 589 l 728 589 z m 630 294 l 532 196 l 728 196 z m 630 98 l 532 -1 l 728 -1 z m 826 687 l 728 589 l 925 589 z m 826 490 l 728 392 l 925 392 z m 826 294 l 728 196 l 925 196 z m 237 687 l 335 589 l 335 785 z m 237 490 l 335 392 l 335 589 z m 237 294 l 335 196 l 335 392 z m 237 98 l 335 -1 l 335 196 z m 434 687 l 532 589 l 532 785 z m 434 98 l 532 -1 l 532 196 z m 630 687 l 728 589 l 728 785 z m 630 490 l 728 392 l 728 589 z m 630 294 l 728 196 l 728 392 z m 630 98 l 728 -1 l 728 196 z m 826 490 l 925 392 l 925 589 z m 826 294 l 925 196 l 925 392 z m 237 490 l 335 589 l 139 589 z m 237 294 l 335 392 l 139 392 z m 237 98 l 335 196 l 139 196 z m 434 687 l 532 785 l 335 785 z m 434 490 l 532 589 l 335 589 z m 434 98 l 532 196 l 335 196 z m 630 687 l 728 785 l 532 785 z m 630 490 l 728 589 l 532 589 z m 630 98 l 728 196 l 532 196 z m 826 490 l 925 589 l 728 589 z m 826 294 l 925 392 l 728 392 z m 826 98 l 925 196 l 728 196 z "},"P":{"ha":1061,"x_min":0,"x_max":0,"o":"m 237 687 l 139 785 l 139 589 z m 237 490 l 139 589 l 139 392 z m 237 294 l 139 392 l 139 196 z m 237 98 l 139 196 l 139 -1 z m 434 687 l 335 785 l 335 589 z m 434 490 l 335 589 l 335 392 z m 434 294 l 335 392 l 335 196 z m 434 98 l 335 196 l 335 -1 z m 630 687 l 532 785 l 532 589 z m 630 294 l 532 392 l 532 196 z m 826 687 l 728 785 l 728 589 z m 826 490 l 728 589 l 728 392 z m 826 294 l 728 392 l 728 196 z m 237 687 l 139 589 l 335 589 z m 237 490 l 139 392 l 335 392 z m 237 294 l 139 196 l 335 196 z m 237 98 l 139 -1 l 335 -1 z m 434 687 l 335 589 l 532 589 z m 434 490 l 335 392 l 532 392 z m 434 294 l 335 196 l 532 196 z m 434 98 l 335 -1 l 532 -1 z m 630 687 l 532 589 l 728 589 z m 630 294 l 532 196 l 728 196 z m 826 687 l 728 589 l 925 589 z m 826 490 l 728 392 l 925 392 z m 237 687 l 335 589 l 335 785 z m 237 490 l 335 392 l 335 589 z m 237 294 l 335 196 l 335 392 z m 237 98 l 335 -1 l 335 196 z m 434 687 l 532 589 l 532 785 z m 434 490 l 532 392 l 532 589 z m 434 294 l 532 196 l 532 392 z m 434 98 l 532 -1 l 532 196 z m 630 687 l 728 589 l 728 785 z m 630 294 l 728 196 l 728 392 z m 826 490 l 925 392 l 925 589 z m 237 687 l 335 785 l 139 785 z m 237 490 l 335 589 l 139 589 z m 237 294 l 335 392 l 139 392 z m 237 98 l 335 196 l 139 196 z m 434 687 l 532 785 l 335 785 z m 434 490 l 532 589 l 335 589 z m 434 294 l 532 392 l 335 392 z m 434 98 l 532 196 l 335 196 z m 630 687 l 728 785 l 532 785 z m 630 294 l 728 392 l 532 392 z m 826 490 l 925 589 l 728 589 z m 826 294 l 925 392 l 728 392 z "},"Q":{"ha":1061,"x_min":0,"x_max":0,"o":"m 237 490 l 139 589 l 139 392 z m 237 294 l 139 392 l 139 196 z m 434 490 l 335 589 l 335 392 z m 434 294 l 335 392 l 335 196 z m 434 687 l 335 785 l 335 589 z m 434 98 l 335 196 l 335 -1 z m 630 687 l 532 785 l 532 589 z m 630 98 l 532 196 l 532 -1 z m 826 687 l 728 785 l 728 589 z m 826 490 l 728 589 l 728 392 z m 826 294 l 728 392 l 728 196 z m 237 687 l 139 589 l 335 589 z m 237 490 l 139 392 l 335 392 z m 237 294 l 139 196 l 335 196 z m 434 490 l 335 392 l 532 392 z m 434 294 l 335 196 l 532 196 z m 434 687 l 335 589 l 532 589 z m 434 98 l 335 -1 l 532 -1 z m 630 687 l 532 589 l 728 589 z m 630 98 l 532 -1 l 728 -1 z m 826 687 l 728 589 l 925 589 z m 826 490 l 728 392 l 925 392 z m 826 294 l 728 196 l 925 196 z m 237 687 l 335 589 l 335 785 z m 237 490 l 335 392 l 335 589 z m 237 294 l 335 196 l 335 392 z m 434 490 l 532 392 l 532 589 z m 434 294 l 532 196 l 532 392 z m 237 98 l 335 -1 l 335 196 z m 434 687 l 532 589 l 532 785 z m 434 98 l 532 -1 l 532 196 z m 630 687 l 728 589 l 728 785 z m 630 294 l 728 196 l 728 392 z m 630 98 l 728 -1 l 728 196 z m 826 490 l 925 392 l 925 589 z m 826 98 l 925 -1 l 925 196 z m 237 490 l 335 589 l 139 589 z m 237 294 l 335 392 l 139 392 z m 434 490 l 532 589 l 335 589 z m 434 294 l 532 392 l 335 392 z m 237 98 l 335 196 l 139 196 z m 434 687 l 532 785 l 335 785 z m 434 98 l 532 196 l 335 196 z m 630 687 l 728 785 l 532 785 z m 630 294 l 728 392 l 532 392 z m 630 98 l 728 196 l 532 196 z m 826 490 l 925 589 l 728 589 z m 826 98 l 925 196 l 728 196 z "},"R":{"ha":1061,"x_min":0,"x_max":0,"o":"m 237 687 l 139 785 l 139 589 z m 237 490 l 139 589 l 139 392 z m 237 294 l 139 392 l 139 196 z m 237 98 l 139 196 l 139 -1 z m 434 687 l 335 785 l 335 589 z m 434 490 l 335 589 l 335 392 z m 434 294 l 335 392 l 335 196 z m 434 98 l 335 196 l 335 -1 z m 630 687 l 532 785 l 532 589 z m 630 294 l 532 392 l 532 196 z m 826 687 l 728 785 l 728 589 z m 826 490 l 728 589 l 728 392 z m 826 294 l 728 392 l 728 196 z m 826 98 l 728 196 l 728 -1 z m 237 687 l 139 589 l 335 589 z m 237 490 l 139 392 l 335 392 z m 237 294 l 139 196 l 335 196 z m 237 98 l 139 -1 l 335 -1 z m 434 687 l 335 589 l 532 589 z m 434 490 l 335 392 l 532 392 z m 434 294 l 335 196 l 532 196 z m 434 98 l 335 -1 l 532 -1 z m 630 687 l 532 589 l 728 589 z m 630 294 l 532 196 l 728 196 z m 826 687 l 728 589 l 925 589 z m 826 490 l 728 392 l 925 392 z m 826 294 l 728 196 l 925 196 z m 826 98 l 728 -1 l 925 -1 z m 237 687 l 335 589 l 335 785 z m 237 490 l 335 392 l 335 589 z m 237 294 l 335 196 l 335 392 z m 237 98 l 335 -1 l 335 196 z m 434 687 l 532 589 l 532 785 z m 434 490 l 532 392 l 532 589 z m 434 294 l 532 196 l 532 392 z m 434 98 l 532 -1 l 532 196 z m 630 687 l 728 589 l 728 785 z m 630 294 l 728 196 l 728 392 z m 630 98 l 728 -1 l 728 196 z m 826 490 l 925 392 l 925 589 z m 826 98 l 925 -1 l 925 196 z m 237 687 l 335 785 l 139 785 z m 237 490 l 335 589 l 139 589 z m 237 294 l 335 392 l 139 392 z m 237 98 l 335 196 l 139 196 z m 434 687 l 532 785 l 335 785 z m 434 490 l 532 589 l 335 589 z m 434 294 l 532 392 l 335 392 z m 434 98 l 532 196 l 335 196 z m 630 687 l 728 785 l 532 785 z m 630 294 l 728 392 l 532 392 z m 630 98 l 728 196 l 532 196 z m 826 490 l 925 589 l 728 589 z m 826 98 l 925 196 l 728 196 z "},"S":{"ha":1061,"x_min":0,"x_max":0,"o":"m 237 687 l 139 785 l 139 589 z m 237 294 l 139 392 l 139 196 z m 237 98 l 139 196 l 139 -1 z m 434 687 l 335 785 l 335 589 z m 434 490 l 335 589 l 335 392 z m 434 98 l 335 196 l 335 -1 z m 630 98 l 532 196 l 532 -1 z m 630 490 l 532 589 l 532 392 z m 630 294 l 532 392 l 532 196 z m 826 687 l 728 785 l 728 589 z m 826 294 l 728 392 l 728 196 z m 826 98 l 728 196 l 728 -1 z m 237 687 l 139 589 l 335 589 z m 237 294 l 139 196 l 335 196 z m 237 98 l 139 -1 l 335 -1 z m 434 687 l 335 589 l 532 589 z m 434 490 l 335 392 l 532 392 z m 434 98 l 335 -1 l 532 -1 z m 630 98 l 532 -1 l 728 -1 z m 630 490 l 532 392 l 728 392 z m 630 294 l 532 196 l 728 196 z m 826 687 l 728 589 l 925 589 z m 826 294 l 728 196 l 925 196 z m 826 98 l 728 -1 l 925 -1 z m 237 687 l 335 589 l 335 785 z m 237 490 l 335 392 l 335 589 z m 237 98 l 335 -1 l 335 196 z m 434 490 l 532 392 l 532 589 z m 434 294 l 532 196 l 532 392 z m 630 687 l 728 589 l 728 785 z m 434 687 l 532 589 l 532 785 z m 630 294 l 728 196 l 728 392 z m 630 98 l 728 -1 l 728 196 z m 826 687 l 925 589 l 925 785 z m 826 490 l 925 392 l 925 589 z m 826 98 l 925 -1 l 925 196 z m 237 687 l 335 785 l 139 785 z m 237 490 l 335 589 l 139 589 z m 237 98 l 335 196 l 139 196 z m 434 490 l 532 589 l 335 589 z m 434 294 l 532 392 l 335 392 z m 630 687 l 728 785 l 532 785 z m 434 687 l 532 785 l 335 785 z m 630 294 l 728 392 l 532 392 z m 630 98 l 728 196 l 532 196 z m 826 687 l 925 785 l 728 785 z m 826 490 l 925 589 l 728 589 z m 826 98 l 925 196 l 728 196 z "},"T":{"ha":1061,"x_min":0,"x_max":0,"o":"m 237 687 l 139 785 l 139 589 z m 237 490 l 139 589 l 139 392 z m 434 687 l 335 785 l 335 589 z m 434 490 l 335 589 l 335 392 z m 434 294 l 335 392 l 335 196 z m 434 98 l 335 196 l 335 -1 z m 630 687 l 532 785 l 532 589 z m 630 490 l 532 589 l 532 392 z m 630 294 l 532 392 l 532 196 z m 630 98 l 532 196 l 532 -1 z m 826 687 l 728 785 l 728 589 z m 237 687 l 139 589 l 335 589 z m 434 687 l 335 589 l 532 589 z m 434 490 l 335 392 l 532 392 z m 434 294 l 335 196 l 532 196 z m 434 98 l 335 -1 l 532 -1 z m 630 687 l 532 589 l 728 589 z m 630 490 l 532 392 l 728 392 z m 630 294 l 532 196 l 728 196 z m 630 98 l 532 -1 l 728 -1 z m 826 687 l 728 589 l 925 589 z m 237 687 l 335 589 l 335 785 z m 434 687 l 532 589 l 532 785 z m 434 490 l 532 392 l 532 589 z m 434 294 l 532 196 l 532 392 z m 434 98 l 532 -1 l 532 196 z m 630 687 l 728 589 l 728 785 z m 630 490 l 728 392 l 728 589 z m 630 294 l 728 196 l 728 392 z m 630 98 l 728 -1 l 728 196 z m 826 687 l 925 589 l 925 785 z m 826 490 l 925 392 l 925 589 z m 237 687 l 335 785 l 139 785 z m 237 490 l 335 589 l 139 589 z m 434 687 l 532 785 l 335 785 z m 434 490 l 532 589 l 335 589 z m 434 294 l 532 392 l 335 392 z m 434 98 l 532 196 l 335 196 z m 630 687 l 728 785 l 532 785 z m 630 490 l 728 589 l 532 589 z m 630 294 l 728 392 l 532 392 z m 630 98 l 728 196 l 532 196 z m 826 687 l 925 785 l 728 785 z m 826 490 l 925 589 l 728 589 z "},"U":{"ha":1061,"x_min":0,"x_max":0,"o":"m 237 687 l 139 785 l 139 589 z m 237 490 l 139 589 l 139 392 z m 237 294 l 139 392 l 139 196 z m 434 687 l 335 785 l 335 589 z m 434 490 l 335 589 l 335 392 z m 434 294 l 335 392 l 335 196 z m 434 98 l 335 196 l 335 -1 z m 630 98 l 532 196 l 532 -1 z m 826 687 l 728 785 l 728 589 z m 826 490 l 728 589 l 728 392 z m 826 294 l 728 392 l 728 196 z m 826 98 l 728 196 l 728 -1 z m 237 687 l 139 589 l 335 589 z m 237 490 l 139 392 l 335 392 z m 237 294 l 139 196 l 335 196 z m 434 687 l 335 589 l 532 589 z m 434 490 l 335 392 l 532 392 z m 434 294 l 335 196 l 532 196 z m 434 98 l 335 -1 l 532 -1 z m 630 98 l 532 -1 l 728 -1 z m 826 687 l 728 589 l 925 589 z m 826 490 l 728 392 l 925 392 z m 826 294 l 728 196 l 925 196 z m 237 687 l 335 589 l 335 785 z m 237 490 l 335 392 l 335 589 z m 237 294 l 335 196 l 335 392 z m 434 687 l 532 589 l 532 785 z m 434 490 l 532 392 l 532 589 z m 434 294 l 532 196 l 532 392 z m 237 98 l 335 -1 l 335 196 z m 434 98 l 532 -1 l 532 196 z m 630 98 l 728 -1 l 728 196 z m 826 687 l 925 589 l 925 785 z m 826 490 l 925 392 l 925 589 z m 826 294 l 925 196 l 925 392 z m 237 687 l 335 785 l 139 785 z m 237 490 l 335 589 l 139 589 z m 237 294 l 335 392 l 139 392 z m 434 687 l 532 785 l 335 785 z m 434 490 l 532 589 l 335 589 z m 434 294 l 532 392 l 335 392 z m 237 98 l 335 196 l 139 196 z m 434 98 l 532 196 l 335 196 z m 630 98 l 728 196 l 532 196 z m 826 687 l 925 785 l 728 785 z m 826 490 l 925 589 l 728 589 z m 826 294 l 925 392 l 728 392 z m 826 98 l 925 196 l 728 196 z "},"V":{"ha":1061,"x_min":0,"x_max":0,"o":"m 237 687 l 139 785 l 139 589 z m 237 490 l 139 589 l 139 392 z m 434 490 l 335 589 l 335 392 z m 434 294 l 335 392 l 335 196 z m 630 294 l 532 392 l 532 196 z m 630 98 l 532 196 l 532 -1 z m 826 490 l 728 589 l 728 392 z m 826 294 l 728 392 l 728 196 z m 237 687 l 139 589 l 335 589 z m 237 490 l 139 392 l 335 392 z m 434 490 l 335 392 l 532 392 z m 434 294 l 335 196 l 532 196 z m 630 490 l 532 392 l 728 392 z m 630 294 l 532 196 l 728 196 z m 826 687 l 728 589 l 925 589 z m 826 490 l 728 392 l 925 392 z m 237 490 l 335 392 l 335 589 z m 237 294 l 335 196 l 335 392 z m 434 294 l 532 196 l 532 392 z m 434 98 l 532 -1 l 532 196 z m 630 490 l 728 392 l 728 589 z m 630 294 l 728 196 l 728 392 z m 826 687 l 925 589 l 925 785 z m 826 490 l 925 392 l 925 589 z m 237 490 l 335 589 l 139 589 z m 237 294 l 335 392 l 139 392 z m 434 294 l 532 392 l 335 392 z m 434 98 l 532 196 l 335 196 z m 630 294 l 728 392 l 532 392 z m 630 98 l 728 196 l 532 196 z m 826 490 l 925 589 l 728 589 z m 826 294 l 925 392 l 728 392 z "},"W":{"ha":1061,"x_min":0,"x_max":0,"o":"m 237 687 l 139 785 l 139 589 z m 237 490 l 139 589 l 139 392 z m 237 294 l 139 392 l 139 196 z m 237 98 l 139 196 l 139 -1 z m 434 294 l 335 392 l 335 196 z m 434 98 l 335 196 l 335 -1 z m 630 490 l 532 589 l 532 392 z m 630 294 l 532 392 l 532 196 z m 826 490 l 728 589 l 728 392 z m 826 294 l 728 392 l 728 196 z m 826 98 l 728 196 l 728 -1 z m 237 687 l 139 589 l 335 589 z m 237 490 l 139 392 l 335 392 z m 237 294 l 139 196 l 335 196 z m 237 98 l 139 -1 l 335 -1 z m 434 490 l 335 392 l 532 392 z m 434 294 l 335 196 l 532 196 z m 630 490 l 532 392 l 728 392 z m 630 294 l 532 196 l 728 196 z m 826 687 l 728 589 l 925 589 z m 826 490 l 728 392 l 925 392 z m 826 294 l 728 196 l 925 196 z m 826 98 l 728 -1 l 925 -1 z m 237 490 l 335 392 l 335 589 z m 237 294 l 335 196 l 335 392 z m 237 98 l 335 -1 l 335 196 z m 434 490 l 532 392 l 532 589 z m 434 294 l 532 196 l 532 392 z m 630 294 l 728 196 l 728 392 z m 630 98 l 728 -1 l 728 196 z m 826 687 l 925 589 l 925 785 z m 826 490 l 925 392 l 925 589 z m 826 294 l 925 196 l 925 392 z m 826 98 l 925 -1 l 925 196 z m 237 490 l 335 589 l 139 589 z m 237 294 l 335 392 l 139 392 z m 237 98 l 335 196 l 139 196 z m 434 294 l 532 392 l 335 392 z m 434 98 l 532 196 l 335 196 z m 630 294 l 728 392 l 532 392 z m 630 98 l 728 196 l 532 196 z m 826 490 l 925 589 l 728 589 z m 826 294 l 925 392 l 728 392 z m 826 98 l 925 196 l 728 196 z "},"X":{"ha":1061,"x_min":0,"x_max":0,"o":"m 237 687 l 139 785 l 139 589 z m 237 98 l 139 196 l 139 -1 z m 434 687 l 335 785 l 335 589 z m 434 490 l 335 589 l 335 392 z m 434 294 l 335 392 l 335 196 z m 434 98 l 335 196 l 335 -1 z m 630 490 l 532 589 l 532 392 z m 630 294 l 532 392 l 532 196 z m 826 687 l 728 785 l 728 589 z m 826 490 l 728 589 l 728 392 z m 826 294 l 728 392 l 728 196 z m 826 98 l 728 196 l 728 -1 z m 237 687 l 139 589 l 335 589 z m 237 294 l 139 196 l 335 196 z m 237 98 l 139 -1 l 335 -1 z m 434 687 l 335 589 l 532 589 z m 434 490 l 335 392 l 532 392 z m 434 294 l 335 196 l 532 196 z m 630 687 l 532 589 l 728 589 z m 630 490 l 532 392 l 728 392 z m 630 294 l 532 196 l 728 196 z m 826 687 l 728 589 l 925 589 z m 826 294 l 728 196 l 925 196 z m 826 98 l 728 -1 l 925 -1 z m 237 687 l 335 589 l 335 785 z m 237 490 l 335 392 l 335 589 z m 237 294 l 335 196 l 335 392 z m 237 98 l 335 -1 l 335 196 z m 434 490 l 532 392 l 532 589 z m 434 294 l 532 196 l 532 392 z m 630 687 l 728 589 l 728 785 z m 630 490 l 728 392 l 728 589 z m 630 294 l 728 196 l 728 392 z m 630 98 l 728 -1 l 728 196 z m 826 687 l 925 589 l 925 785 z m 826 98 l 925 -1 l 925 196 z m 237 687 l 335 785 l 139 785 z m 237 490 l 335 589 l 139 589 z m 237 98 l 335 196 l 139 196 z m 434 490 l 532 589 l 335 589 z m 434 294 l 532 392 l 335 392 z m 434 98 l 532 196 l 335 196 z m 630 490 l 728 589 l 532 589 z m 630 294 l 728 392 l 532 392 z m 630 98 l 728 196 l 532 196 z m 826 687 l 925 785 l 728 785 z m 826 490 l 925 589 l 728 589 z m 826 98 l 925 196 l 728 196 z "},"Y":{"ha":1061,"x_min":0,"x_max":0,"o":"m 237 687 l 139 785 l 139 589 z m 237 98 l 139 196 l 139 -1 z m 434 687 l 335 785 l 335 589 z m 434 490 l 335 589 l 335 392 z m 434 294 l 335 392 l 335 196 z m 434 98 l 335 196 l 335 -1 z m 630 490 l 532 589 l 532 392 z m 630 294 l 532 392 l 532 196 z m 826 687 l 728 785 l 728 589 z m 826 490 l 728 589 l 728 392 z m 237 687 l 139 589 l 335 589 z m 237 294 l 139 196 l 335 196 z m 237 98 l 139 -1 l 335 -1 z m 434 687 l 335 589 l 532 589 z m 434 490 l 335 392 l 532 392 z m 434 294 l 335 196 l 532 196 z m 630 687 l 532 589 l 728 589 z m 630 490 l 532 392 l 728 392 z m 826 687 l 728 589 l 925 589 z m 237 687 l 335 589 l 335 785 z m 237 490 l 335 392 l 335 589 z m 237 294 l 335 196 l 335 392 z m 237 98 l 335 -1 l 335 196 z m 434 490 l 532 392 l 532 589 z m 434 294 l 532 196 l 532 392 z m 630 687 l 728 589 l 728 785 z m 630 490 l 728 392 l 728 589 z m 826 687 l 925 589 l 925 785 z m 237 687 l 335 785 l 139 785 z m 237 490 l 335 589 l 139 589 z m 237 98 l 335 196 l 139 196 z m 434 490 l 532 589 l 335 589 z m 434 294 l 532 392 l 335 392 z m 434 98 l 532 196 l 335 196 z m 630 490 l 728 589 l 532 589 z m 630 294 l 728 392 l 532 392 z m 826 687 l 925 785 l 728 785 z m 826 490 l 925 589 l 728 589 z "},"Z":{"ha":1061,"x_min":0,"x_max":0,"o":"m 237 687 l 139 785 l 139 589 z m 237 490 l 139 589 l 139 392 z m 237 98 l 139 196 l 139 -1 z m 434 687 l 335 785 l 335 589 z m 630 687 l 532 785 l 532 589 z m 434 294 l 335 392 l 335 196 z m 434 98 l 335 196 l 335 -1 z m 630 490 l 532 589 l 532 392 z m 630 294 l 532 392 l 532 196 z m 826 687 l 728 785 l 728 589 z m 826 490 l 728 589 l 728 392 z m 826 98 l 728 196 l 728 -1 z m 237 687 l 139 589 l 335 589 z m 237 294 l 139 196 l 335 196 z m 237 98 l 139 -1 l 335 -1 z m 434 490 l 335 392 l 532 392 z m 434 294 l 335 196 l 532 196 z m 630 687 l 532 589 l 728 589 z m 630 490 l 532 392 l 728 392 z m 630 98 l 532 -1 l 728 -1 z m 434 98 l 335 -1 l 532 -1 z m 826 687 l 728 589 l 925 589 z m 826 294 l 728 196 l 925 196 z m 826 98 l 728 -1 l 925 -1 z m 237 687 l 335 589 l 335 785 z m 237 294 l 335 196 l 335 392 z m 237 98 l 335 -1 l 335 196 z m 434 490 l 532 392 l 532 589 z m 434 294 l 532 196 l 532 392 z m 630 687 l 728 589 l 728 785 z m 630 490 l 728 392 l 728 589 z m 630 98 l 728 -1 l 728 196 z m 434 98 l 532 -1 l 532 196 z m 826 687 l 925 589 l 925 785 z m 826 294 l 925 196 l 925 392 z m 826 98 l 925 -1 l 925 196 z m 237 687 l 335 785 l 139 785 z m 237 490 l 335 589 l 139 589 z m 237 98 l 335 196 l 139 196 z m 434 687 l 532 785 l 335 785 z m 630 687 l 728 785 l 532 785 z m 434 294 l 532 392 l 335 392 z m 434 98 l 532 196 l 335 196 z m 630 490 l 728 589 l 532 589 z m 630 294 l 728 392 l 532 392 z m 826 687 l 925 785 l 728 785 z m 826 490 l 925 589 l 728 589 z m 826 98 l 925 196 l 728 196 z "},"a":{"ha":1061,"x_min":0,"x_max":0,"o":"m 237 490 l 139 589 l 139 392 z m 237 294 l 139 392 l 139 196 z m 237 98 l 139 196 l 139 -1 z m 434 687 l 335 785 l 335 589 z m 434 294 l 335 392 l 335 196 z m 630 687 l 532 785 l 532 589 z m 630 294 l 532 392 l 532 196 z m 826 687 l 728 785 l 728 589 z m 826 490 l 728 589 l 728 392 z m 826 294 l 728 392 l 728 196 z m 826 98 l 728 196 l 728 -1 z m 434 490 l 335 589 l 335 392 z m 434 98 l 335 196 l 335 -1 z m 237 687 l 139 589 l 335 589 z m 237 490 l 139 392 l 335 392 z m 237 294 l 139 196 l 335 196 z m 237 98 l 139 -1 l 335 -1 z m 434 687 l 335 589 l 532 589 z m 434 294 l 335 196 l 532 196 z m 630 687 l 532 589 l 728 589 z m 630 294 l 532 196 l 728 196 z m 826 687 l 728 589 l 925 589 z m 826 490 l 728 392 l 925 392 z m 826 294 l 728 196 l 925 196 z m 826 98 l 728 -1 l 925 -1 z m 434 490 l 335 392 l 532 392 z m 434 98 l 335 -1 l 532 -1 z m 237 687 l 335 589 l 335 785 z m 237 490 l 335 392 l 335 589 z m 237 294 l 335 196 l 335 392 z m 237 98 l 335 -1 l 335 196 z m 434 687 l 532 589 l 532 785 z m 434 294 l 532 196 l 532 392 z m 630 687 l 728 589 l 728 785 z m 630 294 l 728 196 l 728 392 z m 826 490 l 925 392 l 925 589 z m 826 294 l 925 196 l 925 392 z m 826 98 l 925 -1 l 925 196 z m 434 490 l 532 392 l 532 589 z m 434 98 l 532 -1 l 532 196 z m 237 490 l 335 589 l 139 589 z m 237 294 l 335 392 l 139 392 z m 237 98 l 335 196 l 139 196 z m 434 687 l 532 785 l 335 785 z m 434 294 l 532 392 l 335 392 z m 630 687 l 728 785 l 532 785 z m 630 294 l 728 392 l 532 392 z m 826 490 l 925 589 l 728 589 z m 826 294 l 925 392 l 728 392 z m 826 98 l 925 196 l 728 196 z m 434 490 l 532 589 l 335 589 z m 434 98 l 532 196 l 335 196 z "},"b":{"ha":1061,"x_min":0,"x_max":0,"o":"m 237 687 l 139 785 l 139 589 z m 237 490 l 139 589 l 139 392 z m 237 294 l 139 392 l 139 196 z m 237 98 l 139 196 l 139 -1 z m 434 687 l 335 785 l 335 589 z m 434 490 l 335 589 l 335 392 z m 434 294 l 335 392 l 335 196 z m 434 98 l 335 196 l 335 -1 z m 630 687 l 532 785 l 532 589 z m 630 98 l 532 196 l 532 -1 z m 826 687 l 728 785 l 728 589 z m 826 490 l 728 589 l 728 392 z m 826 294 l 728 392 l 728 196 z m 826 98 l 728 196 l 728 -1 z m 237 687 l 139 589 l 335 589 z m 237 490 l 139 392 l 335 392 z m 237 294 l 139 196 l 335 196 z m 237 98 l 139 -1 l 335 -1 z m 434 687 l 335 589 l 532 589 z m 434 490 l 335 392 l 532 392 z m 434 294 l 335 196 l 532 196 z m 434 98 l 335 -1 l 532 -1 z m 630 687 l 532 589 l 728 589 z m 630 490 l 532 392 l 728 392 z m 630 98 l 532 -1 l 728 -1 z m 826 687 l 728 589 l 925 589 z m 826 294 l 728 196 l 925 196 z m 237 687 l 335 589 l 335 785 z m 237 490 l 335 392 l 335 589 z m 237 294 l 335 196 l 335 392 z m 237 98 l 335 -1 l 335 196 z m 434 687 l 532 589 l 532 785 z m 434 490 l 532 392 l 532 589 z m 434 294 l 532 196 l 532 392 z m 434 98 l 532 -1 l 532 196 z m 630 687 l 728 589 l 728 785 z m 630 490 l 728 392 l 728 589 z m 630 294 l 728 196 l 728 392 z m 630 98 l 728 -1 l 728 196 z m 237 687 l 335 785 l 139 785 z m 237 490 l 335 589 l 139 589 z m 237 294 l 335 392 l 139 392 z m 237 98 l 335 196 l 139 196 z m 434 687 l 532 785 l 335 785 z m 434 490 l 532 589 l 335 589 z m 434 294 l 532 392 l 335 392 z m 434 98 l 532 196 l 335 196 z m 630 687 l 728 785 l 532 785 z m 630 294 l 728 392 l 532 392 z m 630 98 l 728 196 l 532 196 z m 826 490 l 925 589 l 728 589 z m 826 98 l 925 196 l 728 196 z "},"c":{"ha":1061,"x_min":0,"x_max":0,"o":"m 237 490 l 139 589 l 139 392 z m 237 294 l 139 392 l 139 196 z m 434 687 l 335 785 l 335 589 z m 434 490 l 335 589 l 335 392 z m 434 294 l 335 392 l 335 196 z m 434 98 l 335 196 l 335 -1 z m 826 687 l 728 785 l 728 589 z m 826 98 l 728 196 l 728 -1 z m 237 687 l 139 589 l 335 589 z m 237 490 l 139 392 l 335 392 z m 237 294 l 139 196 l 335 196 z m 434 687 l 335 589 l 532 589 z m 434 490 l 335 392 l 532 392 z m 434 294 l 335 196 l 532 196 z m 434 98 l 335 -1 l 532 -1 z m 630 98 l 532 -1 l 728 -1 z m 826 687 l 728 589 l 925 589 z m 826 294 l 728 196 l 925 196 z m 826 98 l 728 -1 l 925 -1 z m 237 687 l 335 589 l 335 785 z m 237 490 l 335 392 l 335 589 z m 237 294 l 335 196 l 335 392 z m 237 98 l 335 -1 l 335 196 z m 434 687 l 532 589 l 532 785 z m 434 490 l 532 392 l 532 589 z m 434 294 l 532 196 l 532 392 z m 434 98 l 532 -1 l 532 196 z m 630 687 l 728 589 l 728 785 z m 630 98 l 728 -1 l 728 196 z m 826 687 l 925 589 l 925 785 z m 826 490 l 925 392 l 925 589 z m 826 294 l 925 196 l 925 392 z m 826 98 l 925 -1 l 925 196 z m 237 490 l 335 589 l 139 589 z m 237 294 l 335 392 l 139 392 z m 237 98 l 335 196 l 139 196 z m 434 687 l 532 785 l 335 785 z m 434 490 l 532 589 l 335 589 z m 434 294 l 532 392 l 335 392 z m 434 98 l 532 196 l 335 196 z m 630 687 l 728 785 l 532 785 z m 826 687 l 925 785 l 728 785 z m 826 490 l 925 589 l 728 589 z m 826 98 l 925 196 l 728 196 z "},"d":{"ha":1061,"x_min":0,"x_max":0,"o":"m 237 687 l 139 785 l 139 589 z m 237 490 l 139 589 l 139 392 z m 237 294 l 139 392 l 139 196 z m 237 98 l 139 196 l 139 -1 z m 434 687 l 335 785 l 335 589 z m 434 490 l 335 589 l 335 392 z m 434 294 l 335 392 l 335 196 z m 434 98 l 335 196 l 335 -1 z m 630 687 l 532 785 l 532 589 z m 630 98 l 532 196 l 532 -1 z m 826 687 l 728 785 l 728 589 z m 826 490 l 728 589 l 728 392 z m 826 294 l 728 392 l 728 196 z m 826 98 l 728 196 l 728 -1 z m 237 687 l 139 589 l 335 589 z m 237 490 l 139 392 l 335 392 z m 237 294 l 139 196 l 335 196 z m 237 98 l 139 -1 l 335 -1 z m 434 687 l 335 589 l 532 589 z m 434 490 l 335 392 l 532 392 z m 434 294 l 335 196 l 532 196 z m 434 98 l 335 -1 l 532 -1 z m 630 687 l 532 589 l 728 589 z m 630 294 l 532 196 l 728 196 z m 630 98 l 532 -1 l 728 -1 z m 826 687 l 728 589 l 925 589 z m 826 490 l 728 392 l 925 392 z m 826 294 l 728 196 l 925 196 z m 237 687 l 335 589 l 335 785 z m 237 490 l 335 392 l 335 589 z m 237 294 l 335 196 l 335 392 z m 237 98 l 335 -1 l 335 196 z m 434 687 l 532 589 l 532 785 z m 434 490 l 532 392 l 532 589 z m 434 98 l 532 -1 l 532 196 z m 434 294 l 532 196 l 532 392 z m 630 687 l 728 589 l 728 785 z m 630 490 l 728 392 l 728 589 z m 630 294 l 728 196 l 728 392 z m 630 98 l 728 -1 l 728 196 z m 826 490 l 925 392 l 925 589 z m 826 294 l 925 196 l 925 392 z m 237 687 l 335 785 l 139 785 z m 237 490 l 335 589 l 139 589 z m 237 294 l 335 392 l 139 392 z m 237 98 l 335 196 l 139 196 z m 434 687 l 532 785 l 335 785 z m 434 490 l 532 589 l 335 589 z m 434 98 l 532 196 l 335 196 z m 434 294 l 532 392 l 335 392 z m 630 687 l 728 785 l 532 785 z m 630 490 l 728 589 l 532 589 z m 630 98 l 728 196 l 532 196 z m 826 490 l 925 589 l 728 589 z m 826 294 l 925 392 l 728 392 z m 826 98 l 925 196 l 728 196 z "},"e":{"ha":1061,"x_min":0,"x_max":0,"o":"m 237 687 l 139 785 l 139 589 z m 237 490 l 139 589 l 139 392 z m 237 294 l 139 392 l 139 196 z m 237 98 l 139 196 l 139 -1 z m 434 687 l 335 785 l 335 589 z m 434 490 l 335 589 l 335 392 z m 434 294 l 335 392 l 335 196 z m 434 98 l 335 196 l 335 -1 z m 826 687 l 728 785 l 728 589 z m 826 98 l 728 196 l 728 -1 z m 237 687 l 139 589 l 335 589 z m 237 490 l 139 392 l 335 392 z m 237 294 l 139 196 l 335 196 z m 237 98 l 139 -1 l 335 -1 z m 434 687 l 335 589 l 532 589 z m 434 490 l 335 392 l 532 392 z m 434 294 l 335 196 l 532 196 z m 434 98 l 335 -1 l 532 -1 z m 630 490 l 532 392 l 728 392 z m 630 98 l 532 -1 l 728 -1 z m 826 687 l 728 589 l 925 589 z m 826 294 l 728 196 l 925 196 z m 826 98 l 728 -1 l 925 -1 z m 237 687 l 335 589 l 335 785 z m 237 490 l 335 392 l 335 589 z m 237 294 l 335 196 l 335 392 z m 237 98 l 335 -1 l 335 196 z m 434 687 l 532 589 l 532 785 z m 434 490 l 532 392 l 532 589 z m 434 294 l 532 196 l 532 392 z m 434 98 l 532 -1 l 532 196 z m 630 687 l 728 589 l 728 785 z m 630 490 l 728 392 l 728 589 z m 630 294 l 728 196 l 728 392 z m 630 98 l 728 -1 l 728 196 z m 826 687 l 925 589 l 925 785 z m 826 490 l 925 392 l 925 589 z m 826 294 l 925 196 l 925 392 z m 826 98 l 925 -1 l 925 196 z m 237 687 l 335 785 l 139 785 z m 237 490 l 335 589 l 139 589 z m 237 294 l 335 392 l 139 392 z m 237 98 l 335 196 l 139 196 z m 434 687 l 532 785 l 335 785 z m 434 490 l 532 589 l 335 589 z m 434 294 l 532 392 l 335 392 z m 434 98 l 532 196 l 335 196 z m 630 687 l 728 785 l 532 785 z m 630 294 l 728 392 l 532 392 z m 826 687 l 925 785 l 728 785 z m 826 490 l 925 589 l 728 589 z m 826 98 l 925 196 l 728 196 z "},"f":{"ha":1061,"x_min":0,"x_max":0,"o":"m 237 687 l 139 785 l 139 589 z m 237 490 l 139 589 l 139 392 z m 237 294 l 139 392 l 139 196 z m 237 98 l 139 196 l 139 -1 z m 434 687 l 335 785 l 335 589 z m 434 490 l 335 589 l 335 392 z m 434 294 l 335 392 l 335 196 z m 434 98 l 335 196 l 335 -1 z m 826 687 l 728 785 l 728 589 z m 237 687 l 139 589 l 335 589 z m 237 490 l 139 392 l 335 392 z m 237 294 l 139 196 l 335 196 z m 237 98 l 139 -1 l 335 -1 z m 434 687 l 335 589 l 532 589 z m 434 490 l 335 392 l 532 392 z m 434 294 l 335 196 l 532 196 z m 434 98 l 335 -1 l 532 -1 z m 630 490 l 532 392 l 728 392 z m 826 687 l 728 589 l 925 589 z m 237 687 l 335 589 l 335 785 z m 237 490 l 335 392 l 335 589 z m 237 294 l 335 196 l 335 392 z m 237 98 l 335 -1 l 335 196 z m 434 687 l 532 589 l 532 785 z m 434 490 l 532 392 l 532 589 z m 434 294 l 532 196 l 532 392 z m 434 98 l 532 -1 l 532 196 z m 630 687 l 728 589 l 728 785 z m 630 490 l 728 392 l 728 589 z m 630 294 l 728 196 l 728 392 z m 826 687 l 925 589 l 925 785 z m 826 490 l 925 392 l 925 589 z m 237 687 l 335 785 l 139 785 z m 237 490 l 335 589 l 139 589 z m 237 294 l 335 392 l 139 392 z m 237 98 l 335 196 l 139 196 z m 434 687 l 532 785 l 335 785 z m 434 490 l 532 589 l 335 589 z m 434 294 l 532 392 l 335 392 z m 434 98 l 532 196 l 335 196 z m 630 687 l 728 785 l 532 785 z m 630 294 l 728 392 l 532 392 z m 826 687 l 925 785 l 728 785 z m 826 490 l 925 589 l 728 589 z "},"g":{"ha":1061,"x_min":0,"x_max":0,"o":"m 237 687 l 139 785 l 139 589 z m 237 490 l 139 589 l 139 392 z m 237 294 l 139 392 l 139 196 z m 237 98 l 139 196 l 139 -1 z m 434 687 l 335 785 l 335 589 z m 434 490 l 335 589 l 335 392 z m 434 294 l 335 392 l 335 196 z m 434 98 l 335 196 l 335 -1 z m 630 98 l 532 196 l 532 -1 z m 826 687 l 728 785 l 728 589 z m 630 687 l 532 785 l 532 589 z m 826 294 l 728 392 l 728 196 z m 826 98 l 728 196 l 728 -1 z m 237 687 l 139 589 l 335 589 z m 237 490 l 139 392 l 335 392 z m 237 294 l 139 196 l 335 196 z m 237 98 l 139 -1 l 335 -1 z m 434 687 l 335 589 l 532 589 z m 434 294 l 335 196 l 532 196 z m 434 98 l 335 -1 l 532 -1 z m 630 98 l 532 -1 l 728 -1 z m 826 687 l 728 589 l 925 589 z m 826 294 l 728 196 l 925 196 z m 826 98 l 728 -1 l 925 -1 z m 237 687 l 335 589 l 335 785 z m 237 490 l 335 392 l 335 589 z m 237 294 l 335 196 l 335 392 z m 237 98 l 335 -1 l 335 196 z m 434 687 l 532 589 l 532 785 z m 434 98 l 532 -1 l 532 196 z m 630 687 l 728 589 l 728 785 z m 630 294 l 728 196 l 728 392 z m 630 98 l 728 -1 l 728 196 z m 826 687 l 925 589 l 925 785 z m 826 490 l 925 392 l 925 589 z m 826 294 l 925 196 l 925 392 z m 826 98 l 925 -1 l 925 196 z m 237 687 l 335 785 l 139 785 z m 237 490 l 335 589 l 139 589 z m 237 294 l 335 392 l 139 392 z m 237 98 l 335 196 l 139 196 z m 434 687 l 532 785 l 335 785 z m 434 490 l 532 589 l 335 589 z m 434 98 l 532 196 l 335 196 z m 630 687 l 728 785 l 532 785 z m 630 294 l 728 392 l 532 392 z m 826 687 l 925 785 l 728 785 z m 826 490 l 925 589 l 728 589 z m 826 294 l 925 392 l 728 392 z m 826 98 l 925 196 l 728 196 z "},"h":{"ha":1061,"x_min":0,"x_max":0,"o":"m 237 687 l 139 785 l 139 589 z m 237 490 l 139 589 l 139 392 z m 237 294 l 139 392 l 139 196 z m 237 98 l 139 196 l 139 -1 z m 434 687 l 335 785 l 335 589 z m 434 490 l 335 589 l 335 392 z m 434 294 l 335 392 l 335 196 z m 434 98 l 335 196 l 335 -1 z m 826 687 l 728 785 l 728 589 z m 826 490 l 728 589 l 728 392 z m 826 294 l 728 392 l 728 196 z m 826 98 l 728 196 l 728 -1 z m 237 687 l 139 589 l 335 589 z m 237 490 l 139 392 l 335 392 z m 237 294 l 139 196 l 335 196 z m 237 98 l 139 -1 l 335 -1 z m 434 687 l 335 589 l 532 589 z m 434 490 l 335 392 l 532 392 z m 434 294 l 335 196 l 532 196 z m 434 98 l 335 -1 l 532 -1 z m 826 687 l 728 589 l 925 589 z m 826 490 l 728 392 l 925 392 z m 826 294 l 728 196 l 925 196 z m 826 98 l 728 -1 l 925 -1 z m 237 687 l 335 589 l 335 785 z m 237 490 l 335 392 l 335 589 z m 237 294 l 335 196 l 335 392 z m 237 98 l 335 -1 l 335 196 z m 434 687 l 532 589 l 532 785 z m 434 490 l 532 392 l 532 589 z m 434 294 l 532 196 l 532 392 z m 434 98 l 532 -1 l 532 196 z m 630 294 l 728 196 l 728 392 z m 826 687 l 925 589 l 925 785 z m 826 490 l 925 392 l 925 589 z m 826 294 l 925 196 l 925 392 z m 826 98 l 925 -1 l 925 196 z m 237 687 l 335 785 l 139 785 z m 237 490 l 335 589 l 139 589 z m 237 294 l 335 392 l 139 392 z m 237 98 l 335 196 l 139 196 z m 434 687 l 532 785 l 335 785 z m 434 490 l 532 589 l 335 589 z m 434 294 l 532 392 l 335 392 z m 434 98 l 532 196 l 335 196 z m 630 294 l 728 392 l 532 392 z m 826 687 l 925 785 l 728 785 z m 826 490 l 925 589 l 728 589 z m 826 294 l 925 392 l 728 392 z m 826 98 l 925 196 l 728 196 z "},"i":{"ha":668,"x_min":0,"x_max":0,"o":"m 237 490 l 139 589 l 139 392 z m 237 294 l 139 392 l 139 196 z m 237 98 l 139 196 l 139 -1 z m 434 490 l 335 589 l 335 392 z m 434 687 l 335 785 l 335 589 z m 434 294 l 335 392 l 335 196 z m 434 98 l 335 196 l 335 -1 z m 237 490 l 139 392 l 335 392 z m 237 294 l 139 196 l 335 196 z m 237 98 l 139 -1 l 335 -1 z m 434 490 l 335 392 l 532 392 z m 434 294 l 335 196 l 532 196 z m 434 98 l 335 -1 l 532 -1 z m 237 490 l 335 392 l 335 589 z m 237 294 l 335 196 l 335 392 z m 237 98 l 335 -1 l 335 196 z m 434 490 l 532 392 l 532 589 z m 237 687 l 335 589 l 335 785 z m 434 294 l 532 196 l 532 392 z m 434 98 l 532 -1 l 532 196 z m 237 490 l 335 589 l 139 589 z m 237 294 l 335 392 l 139 392 z m 237 98 l 335 196 l 139 196 z m 434 490 l 532 589 l 335 589 z m 237 687 l 335 785 l 139 785 z m 434 687 l 532 785 l 335 785 z m 434 294 l 532 392 l 335 392 z m 434 98 l 532 196 l 335 196 z "},"j":{"ha":1061,"x_min":0,"x_max":0,"o":"m 237 294 l 139 392 l 139 196 z m 237 98 l 139 196 l 139 -1 z m 434 98 l 335 196 l 335 -1 z m 630 687 l 532 785 l 532 589 z m 630 490 l 532 589 l 532 392 z m 630 294 l 532 392 l 532 196 z m 630 98 l 532 196 l 532 -1 z m 826 687 l 728 785 l 728 589 z m 826 490 l 728 589 l 728 392 z m 826 294 l 728 392 l 728 196 z m 826 98 l 728 196 l 728 -1 z m 237 294 l 139 196 l 335 196 z m 237 98 l 139 -1 l 335 -1 z m 434 98 l 335 -1 l 532 -1 z m 630 687 l 532 589 l 728 589 z m 630 490 l 532 392 l 728 392 z m 630 294 l 532 196 l 728 196 z m 630 98 l 532 -1 l 728 -1 z m 826 687 l 728 589 l 925 589 z m 826 490 l 728 392 l 925 392 z m 826 294 l 728 196 l 925 196 z m 826 98 l 728 -1 l 925 -1 z m 237 98 l 335 -1 l 335 196 z m 630 687 l 728 589 l 728 785 z m 630 490 l 728 392 l 728 589 z m 630 294 l 728 196 l 728 392 z m 630 98 l 728 -1 l 728 196 z m 826 687 l 925 589 l 925 785 z m 434 687 l 532 589 l 532 785 z m 826 490 l 925 392 l 925 589 z m 826 294 l 925 196 l 925 392 z m 826 98 l 925 -1 l 925 196 z m 237 98 l 335 196 l 139 196 z m 630 687 l 728 785 l 532 785 z m 630 490 l 728 589 l 532 589 z m 630 294 l 728 392 l 532 392 z m 630 98 l 728 196 l 532 196 z m 826 687 l 925 785 l 728 785 z m 434 687 l 532 785 l 335 785 z m 826 490 l 925 589 l 728 589 z m 826 294 l 925 392 l 728 392 z m 826 98 l 925 196 l 728 196 z "},"k":{"ha":1061,"x_min":0,"x_max":0,"o":"m 237 687 l 139 785 l 139 589 z m 237 490 l 139 589 l 139 392 z m 237 294 l 139 392 l 139 196 z m 237 98 l 139 196 l 139 -1 z m 434 687 l 335 785 l 335 589 z m 434 490 l 335 589 l 335 392 z m 826 490 l 728 589 l 728 392 z m 434 294 l 335 392 l 335 196 z m 434 98 l 335 196 l 335 -1 z m 826 294 l 728 392 l 728 196 z m 237 687 l 139 589 l 335 589 z m 237 490 l 139 392 l 335 392 z m 237 294 l 139 196 l 335 196 z m 237 98 l 139 -1 l 335 -1 z m 434 687 l 335 589 l 532 589 z m 434 490 l 335 392 l 532 392 z m 630 490 l 532 392 l 728 392 z m 826 687 l 728 589 l 925 589 z m 826 490 l 728 392 l 925 392 z m 434 294 l 335 196 l 532 196 z m 434 98 l 335 -1 l 532 -1 z m 826 294 l 728 196 l 925 196 z m 237 687 l 335 589 l 335 785 z m 237 490 l 335 392 l 335 589 z m 237 294 l 335 196 l 335 392 z m 237 98 l 335 -1 l 335 196 z m 434 687 l 532 589 l 532 785 z m 434 490 l 532 392 l 532 589 z m 630 490 l 728 392 l 728 589 z m 826 687 l 925 589 l 925 785 z m 826 490 l 925 392 l 925 589 z m 434 294 l 532 196 l 532 392 z m 434 98 l 532 -1 l 532 196 z m 630 294 l 728 196 l 728 392 z m 826 294 l 925 196 l 925 392 z m 826 98 l 925 -1 l 925 196 z m 237 687 l 335 785 l 139 785 z m 237 490 l 335 589 l 139 589 z m 237 294 l 335 392 l 139 392 z m 237 98 l 335 196 l 139 196 z m 434 687 l 532 785 l 335 785 z m 434 490 l 532 589 l 335 589 z m 826 490 l 925 589 l 728 589 z m 434 294 l 532 392 l 335 392 z m 434 98 l 532 196 l 335 196 z m 630 294 l 728 392 l 532 392 z m 826 294 l 925 392 l 728 392 z m 826 98 l 925 196 l 728 196 z "},"l":{"ha":1061,"x_min":0,"x_max":0,"o":"m 237 687 l 139 785 l 139 589 z m 237 490 l 139 589 l 139 392 z m 237 294 l 139 392 l 139 196 z m 237 98 l 139 196 l 139 -1 z m 434 687 l 335 785 l 335 589 z m 434 490 l 335 589 l 335 392 z m 434 294 l 335 392 l 335 196 z m 434 98 l 335 196 l 335 -1 z m 826 98 l 728 196 l 728 -1 z m 237 687 l 139 589 l 335 589 z m 237 490 l 139 392 l 335 392 z m 237 294 l 139 196 l 335 196 z m 237 98 l 139 -1 l 335 -1 z m 434 687 l 335 589 l 532 589 z m 434 490 l 335 392 l 532 392 z m 434 294 l 335 196 l 532 196 z m 434 98 l 335 -1 l 532 -1 z m 630 98 l 532 -1 l 728 -1 z m 826 294 l 728 196 l 925 196 z m 826 98 l 728 -1 l 925 -1 z m 237 687 l 335 589 l 335 785 z m 237 490 l 335 392 l 335 589 z m 237 294 l 335 196 l 335 392 z m 237 98 l 335 -1 l 335 196 z m 434 687 l 532 589 l 532 785 z m 434 490 l 532 392 l 532 589 z m 434 294 l 532 196 l 532 392 z m 434 98 l 532 -1 l 532 196 z m 630 98 l 728 -1 l 728 196 z m 826 294 l 925 196 l 925 392 z m 826 98 l 925 -1 l 925 196 z m 237 687 l 335 785 l 139 785 z m 237 490 l 335 589 l 139 589 z m 237 294 l 335 392 l 139 392 z m 237 98 l 335 196 l 139 196 z m 434 687 l 532 785 l 335 785 z m 434 490 l 532 589 l 335 589 z m 434 294 l 532 392 l 335 392 z m 434 98 l 532 196 l 335 196 z m 826 98 l 925 196 l 728 196 z "},"m":{"ha":1061,"x_min":0,"x_max":0,"o":"m 237 687 l 139 785 l 139 589 z m 237 490 l 139 589 l 139 392 z m 237 294 l 139 392 l 139 196 z m 237 98 l 139 196 l 139 -1 z m 434 490 l 335 589 l 335 392 z m 434 294 l 335 392 l 335 196 z m 630 294 l 532 392 l 532 196 z m 630 98 l 532 196 l 532 -1 z m 826 490 l 728 589 l 728 392 z m 826 294 l 728 392 l 728 196 z m 826 98 l 728 196 l 728 -1 z m 237 687 l 139 589 l 335 589 z m 237 490 l 139 392 l 335 392 z m 237 294 l 139 196 l 335 196 z m 237 98 l 139 -1 l 335 -1 z m 434 490 l 335 392 l 532 392 z m 434 294 l 335 196 l 532 196 z m 630 490 l 532 392 l 728 392 z m 630 294 l 532 196 l 728 196 z m 826 687 l 728 589 l 925 589 z m 826 490 l 728 392 l 925 392 z m 826 294 l 728 196 l 925 196 z m 826 98 l 728 -1 l 925 -1 z m 237 490 l 335 392 l 335 589 z m 237 294 l 335 196 l 335 392 z m 237 98 l 335 -1 l 335 196 z m 434 294 l 532 196 l 532 392 z m 434 98 l 532 -1 l 532 196 z m 630 490 l 728 392 l 728 589 z m 630 294 l 728 196 l 728 392 z m 826 687 l 925 589 l 925 785 z m 826 490 l 925 392 l 925 589 z m 826 294 l 925 196 l 925 392 z m 826 98 l 925 -1 l 925 196 z m 237 490 l 335 589 l 139 589 z m 237 294 l 335 392 l 139 392 z m 237 98 l 335 196 l 139 196 z m 434 294 l 532 392 l 335 392 z m 434 98 l 532 196 l 335 196 z m 630 294 l 728 392 l 532 392 z m 630 98 l 728 196 l 532 196 z m 826 490 l 925 589 l 728 589 z m 826 294 l 925 392 l 728 392 z m 826 98 l 925 196 l 728 196 z "},"n":{"ha":1061,"x_min":0,"x_max":0,"o":"m 237 687 l 139 785 l 139 589 z m 237 490 l 139 589 l 139 392 z m 237 294 l 139 392 l 139 196 z m 237 98 l 139 196 l 139 -1 z m 434 490 l 335 589 l 335 392 z m 434 294 l 335 392 l 335 196 z m 434 98 l 335 196 l 335 -1 z m 630 687 l 532 785 l 532 589 z m 630 490 l 532 589 l 532 392 z m 826 687 l 728 785 l 728 589 z m 826 490 l 728 589 l 728 392 z m 826 294 l 728 392 l 728 196 z m 237 687 l 139 589 l 335 589 z m 237 490 l 139 392 l 335 392 z m 237 294 l 139 196 l 335 196 z m 237 98 l 139 -1 l 335 -1 z m 434 490 l 335 392 l 532 392 z m 434 294 l 335 196 l 532 196 z m 434 98 l 335 -1 l 532 -1 z m 630 687 l 532 589 l 728 589 z m 630 490 l 532 392 l 728 392 z m 826 687 l 728 589 l 925 589 z m 826 490 l 728 392 l 925 392 z m 826 294 l 728 196 l 925 196 z m 237 490 l 335 392 l 335 589 z m 237 294 l 335 196 l 335 392 z m 237 98 l 335 -1 l 335 196 z m 434 294 l 532 196 l 532 392 z m 434 98 l 532 -1 l 532 196 z m 630 687 l 728 589 l 728 785 z m 630 490 l 728 392 l 728 589 z m 630 294 l 728 196 l 728 392 z m 826 687 l 925 589 l 925 785 z m 826 490 l 925 392 l 925 589 z m 826 294 l 925 196 l 925 392 z m 826 98 l 925 -1 l 925 196 z m 237 490 l 335 589 l 139 589 z m 237 294 l 335 392 l 139 392 z m 237 98 l 335 196 l 139 196 z m 434 294 l 532 392 l 335 392 z m 434 98 l 532 196 l 335 196 z m 630 687 l 728 785 l 532 785 z m 630 490 l 728 589 l 532 589 z m 630 294 l 728 392 l 532 392 z m 826 687 l 925 785 l 728 785 z m 826 490 l 925 589 l 728 589 z m 826 294 l 925 392 l 728 392 z m 826 98 l 925 196 l 728 196 z "},"o":{"ha":1061,"x_min":0,"x_max":0,"o":"m 237 490 l 139 589 l 139 392 z m 237 294 l 139 392 l 139 196 z m 434 687 l 335 785 l 335 589 z m 434 490 l 335 589 l 335 392 z m 434 294 l 335 392 l 335 196 z m 434 98 l 335 196 l 335 -1 z m 630 687 l 532 785 l 532 589 z m 630 98 l 532 196 l 532 -1 z m 826 687 l 728 785 l 728 589 z m 826 490 l 728 589 l 728 392 z m 826 294 l 728 392 l 728 196 z m 826 98 l 728 196 l 728 -1 z m 237 687 l 139 589 l 335 589 z m 237 490 l 139 392 l 335 392 z m 237 294 l 139 196 l 335 196 z m 434 687 l 335 589 l 532 589 z m 434 294 l 335 196 l 532 196 z m 434 98 l 335 -1 l 532 -1 z m 630 687 l 532 589 l 728 589 z m 630 294 l 532 196 l 728 196 z m 630 98 l 532 -1 l 728 -1 z m 826 687 l 728 589 l 925 589 z m 826 490 l 728 392 l 925 392 z m 826 294 l 728 196 l 925 196 z m 237 687 l 335 589 l 335 785 z m 237 490 l 335 392 l 335 589 z m 237 294 l 335 196 l 335 392 z m 237 98 l 335 -1 l 335 196 z m 434 687 l 532 589 l 532 785 z m 434 98 l 532 -1 l 532 196 z m 630 687 l 728 589 l 728 785 z m 630 490 l 728 392 l 728 589 z m 630 294 l 728 196 l 728 392 z m 630 98 l 728 -1 l 728 196 z m 826 490 l 925 392 l 925 589 z m 826 294 l 925 196 l 925 392 z m 237 490 l 335 589 l 139 589 z m 237 294 l 335 392 l 139 392 z m 237 98 l 335 196 l 139 196 z m 434 687 l 532 785 l 335 785 z m 434 490 l 532 589 l 335 589 z m 434 98 l 532 196 l 335 196 z m 630 687 l 728 785 l 532 785 z m 630 490 l 728 589 l 532 589 z m 630 98 l 728 196 l 532 196 z m 826 490 l 925 589 l 728 589 z m 826 294 l 925 392 l 728 392 z m 826 98 l 925 196 l 728 196 z "},"p":{"ha":1061,"x_min":0,"x_max":0,"o":"m 237 687 l 139 785 l 139 589 z m 237 490 l 139 589 l 139 392 z m 237 294 l 139 392 l 139 196 z m 237 98 l 139 196 l 139 -1 z m 434 687 l 335 785 l 335 589 z m 434 490 l 335 589 l 335 392 z m 434 294 l 335 392 l 335 196 z m 434 98 l 335 196 l 335 -1 z m 630 687 l 532 785 l 532 589 z m 630 294 l 532 392 l 532 196 z m 826 687 l 728 785 l 728 589 z m 826 490 l 728 589 l 728 392 z m 826 294 l 728 392 l 728 196 z m 237 687 l 139 589 l 335 589 z m 237 490 l 139 392 l 335 392 z m 237 294 l 139 196 l 335 196 z m 237 98 l 139 -1 l 335 -1 z m 434 687 l 335 589 l 532 589 z m 434 490 l 335 392 l 532 392 z m 434 294 l 335 196 l 532 196 z m 434 98 l 335 -1 l 532 -1 z m 630 687 l 532 589 l 728 589 z m 630 294 l 532 196 l 728 196 z m 826 687 l 728 589 l 925 589 z m 826 490 l 728 392 l 925 392 z m 237 687 l 335 589 l 335 785 z m 237 490 l 335 392 l 335 589 z m 237 294 l 335 196 l 335 392 z m 237 98 l 335 -1 l 335 196 z m 434 687 l 532 589 l 532 785 z m 434 490 l 532 392 l 532 589 z m 434 294 l 532 196 l 532 392 z m 434 98 l 532 -1 l 532 196 z m 630 687 l 728 589 l 728 785 z m 630 294 l 728 196 l 728 392 z m 826 490 l 925 392 l 925 589 z m 237 687 l 335 785 l 139 785 z m 237 490 l 335 589 l 139 589 z m 237 294 l 335 392 l 139 392 z m 237 98 l 335 196 l 139 196 z m 434 687 l 532 785 l 335 785 z m 434 490 l 532 589 l 335 589 z m 434 294 l 532 392 l 335 392 z m 434 98 l 532 196 l 335 196 z m 630 687 l 728 785 l 532 785 z m 630 294 l 728 392 l 532 392 z m 826 490 l 925 589 l 728 589 z m 826 294 l 925 392 l 728 392 z "},"q":{"ha":1061,"x_min":0,"x_max":0,"o":"m 237 490 l 139 589 l 139 392 z m 237 294 l 139 392 l 139 196 z m 434 490 l 335 589 l 335 392 z m 434 294 l 335 392 l 335 196 z m 434 687 l 335 785 l 335 589 z m 434 98 l 335 196 l 335 -1 z m 630 687 l 532 785 l 532 589 z m 630 98 l 532 196 l 532 -1 z m 826 687 l 728 785 l 728 589 z m 826 490 l 728 589 l 728 392 z m 826 294 l 728 392 l 728 196 z m 237 687 l 139 589 l 335 589 z m 237 490 l 139 392 l 335 392 z m 237 294 l 139 196 l 335 196 z m 434 490 l 335 392 l 532 392 z m 434 294 l 335 196 l 532 196 z m 434 687 l 335 589 l 532 589 z m 434 98 l 335 -1 l 532 -1 z m 630 687 l 532 589 l 728 589 z m 630 98 l 532 -1 l 728 -1 z m 826 687 l 728 589 l 925 589 z m 826 490 l 728 392 l 925 392 z m 826 294 l 728 196 l 925 196 z m 237 687 l 335 589 l 335 785 z m 237 490 l 335 392 l 335 589 z m 237 294 l 335 196 l 335 392 z m 434 490 l 532 392 l 532 589 z m 434 294 l 532 196 l 532 392 z m 237 98 l 335 -1 l 335 196 z m 434 687 l 532 589 l 532 785 z m 434 98 l 532 -1 l 532 196 z m 630 687 l 728 589 l 728 785 z m 630 294 l 728 196 l 728 392 z m 630 98 l 728 -1 l 728 196 z m 826 490 l 925 392 l 925 589 z m 826 98 l 925 -1 l 925 196 z m 237 490 l 335 589 l 139 589 z m 237 294 l 335 392 l 139 392 z m 434 490 l 532 589 l 335 589 z m 434 294 l 532 392 l 335 392 z m 237 98 l 335 196 l 139 196 z m 434 687 l 532 785 l 335 785 z m 434 98 l 532 196 l 335 196 z m 630 687 l 728 785 l 532 785 z m 630 294 l 728 392 l 532 392 z m 630 98 l 728 196 l 532 196 z m 826 490 l 925 589 l 728 589 z m 826 98 l 925 196 l 728 196 z "},"r":{"ha":1061,"x_min":0,"x_max":0,"o":"m 237 687 l 139 785 l 139 589 z m 237 490 l 139 589 l 139 392 z m 237 294 l 139 392 l 139 196 z m 237 98 l 139 196 l 139 -1 z m 434 687 l 335 785 l 335 589 z m 434 490 l 335 589 l 335 392 z m 434 294 l 335 392 l 335 196 z m 434 98 l 335 196 l 335 -1 z m 630 687 l 532 785 l 532 589 z m 630 294 l 532 392 l 532 196 z m 826 687 l 728 785 l 728 589 z m 826 490 l 728 589 l 728 392 z m 826 294 l 728 392 l 728 196 z m 826 98 l 728 196 l 728 -1 z m 237 687 l 139 589 l 335 589 z m 237 490 l 139 392 l 335 392 z m 237 294 l 139 196 l 335 196 z m 237 98 l 139 -1 l 335 -1 z m 434 687 l 335 589 l 532 589 z m 434 490 l 335 392 l 532 392 z m 434 294 l 335 196 l 532 196 z m 434 98 l 335 -1 l 532 -1 z m 630 687 l 532 589 l 728 589 z m 630 294 l 532 196 l 728 196 z m 826 687 l 728 589 l 925 589 z m 826 490 l 728 392 l 925 392 z m 826 294 l 728 196 l 925 196 z m 826 98 l 728 -1 l 925 -1 z m 237 687 l 335 589 l 335 785 z m 237 490 l 335 392 l 335 589 z m 237 294 l 335 196 l 335 392 z m 237 98 l 335 -1 l 335 196 z m 434 687 l 532 589 l 532 785 z m 434 490 l 532 392 l 532 589 z m 434 294 l 532 196 l 532 392 z m 434 98 l 532 -1 l 532 196 z m 630 687 l 728 589 l 728 785 z m 630 294 l 728 196 l 728 392 z m 630 98 l 728 -1 l 728 196 z m 826 490 l 925 392 l 925 589 z m 826 98 l 925 -1 l 925 196 z m 237 687 l 335 785 l 139 785 z m 237 490 l 335 589 l 139 589 z m 237 294 l 335 392 l 139 392 z m 237 98 l 335 196 l 139 196 z m 434 687 l 532 785 l 335 785 z m 434 490 l 532 589 l 335 589 z m 434 294 l 532 392 l 335 392 z m 434 98 l 532 196 l 335 196 z m 630 687 l 728 785 l 532 785 z m 630 294 l 728 392 l 532 392 z m 630 98 l 728 196 l 532 196 z m 826 490 l 925 589 l 728 589 z m 826 98 l 925 196 l 728 196 z "},"s":{"ha":1061,"x_min":0,"x_max":0,"o":"m 237 687 l 139 785 l 139 589 z m 237 294 l 139 392 l 139 196 z m 237 98 l 139 196 l 139 -1 z m 434 687 l 335 785 l 335 589 z m 434 490 l 335 589 l 335 392 z m 434 98 l 335 196 l 335 -1 z m 630 98 l 532 196 l 532 -1 z m 630 490 l 532 589 l 532 392 z m 630 294 l 532 392 l 532 196 z m 826 687 l 728 785 l 728 589 z m 826 294 l 728 392 l 728 196 z m 826 98 l 728 196 l 728 -1 z m 237 687 l 139 589 l 335 589 z m 237 294 l 139 196 l 335 196 z m 237 98 l 139 -1 l 335 -1 z m 434 687 l 335 589 l 532 589 z m 434 490 l 335 392 l 532 392 z m 434 98 l 335 -1 l 532 -1 z m 630 98 l 532 -1 l 728 -1 z m 630 490 l 532 392 l 728 392 z m 630 294 l 532 196 l 728 196 z m 826 687 l 728 589 l 925 589 z m 826 294 l 728 196 l 925 196 z m 826 98 l 728 -1 l 925 -1 z m 237 687 l 335 589 l 335 785 z m 237 490 l 335 392 l 335 589 z m 237 98 l 335 -1 l 335 196 z m 434 490 l 532 392 l 532 589 z m 434 294 l 532 196 l 532 392 z m 630 687 l 728 589 l 728 785 z m 434 687 l 532 589 l 532 785 z m 630 294 l 728 196 l 728 392 z m 630 98 l 728 -1 l 728 196 z m 826 687 l 925 589 l 925 785 z m 826 490 l 925 392 l 925 589 z m 826 98 l 925 -1 l 925 196 z m 237 687 l 335 785 l 139 785 z m 237 490 l 335 589 l 139 589 z m 237 98 l 335 196 l 139 196 z m 434 490 l 532 589 l 335 589 z m 434 294 l 532 392 l 335 392 z m 630 687 l 728 785 l 532 785 z m 434 687 l 532 785 l 335 785 z m 630 294 l 728 392 l 532 392 z m 630 98 l 728 196 l 532 196 z m 826 687 l 925 785 l 728 785 z m 826 490 l 925 589 l 728 589 z m 826 98 l 925 196 l 728 196 z "},"t":{"ha":1061,"x_min":0,"x_max":0,"o":"m 237 687 l 139 785 l 139 589 z m 237 490 l 139 589 l 139 392 z m 434 687 l 335 785 l 335 589 z m 434 490 l 335 589 l 335 392 z m 434 294 l 335 392 l 335 196 z m 434 98 l 335 196 l 335 -1 z m 630 687 l 532 785 l 532 589 z m 630 490 l 532 589 l 532 392 z m 630 294 l 532 392 l 532 196 z m 630 98 l 532 196 l 532 -1 z m 826 687 l 728 785 l 728 589 z m 237 687 l 139 589 l 335 589 z m 434 687 l 335 589 l 532 589 z m 434 490 l 335 392 l 532 392 z m 434 294 l 335 196 l 532 196 z m 434 98 l 335 -1 l 532 -1 z m 630 687 l 532 589 l 728 589 z m 630 490 l 532 392 l 728 392 z m 630 294 l 532 196 l 728 196 z m 630 98 l 532 -1 l 728 -1 z m 826 687 l 728 589 l 925 589 z m 237 687 l 335 589 l 335 785 z m 434 687 l 532 589 l 532 785 z m 434 490 l 532 392 l 532 589 z m 434 294 l 532 196 l 532 392 z m 434 98 l 532 -1 l 532 196 z m 630 687 l 728 589 l 728 785 z m 630 490 l 728 392 l 728 589 z m 630 294 l 728 196 l 728 392 z m 630 98 l 728 -1 l 728 196 z m 826 687 l 925 589 l 925 785 z m 826 490 l 925 392 l 925 589 z m 237 687 l 335 785 l 139 785 z m 237 490 l 335 589 l 139 589 z m 434 687 l 532 785 l 335 785 z m 434 490 l 532 589 l 335 589 z m 434 294 l 532 392 l 335 392 z m 434 98 l 532 196 l 335 196 z m 630 687 l 728 785 l 532 785 z m 630 490 l 728 589 l 532 589 z m 630 294 l 728 392 l 532 392 z m 630 98 l 728 196 l 532 196 z m 826 687 l 925 785 l 728 785 z m 826 490 l 925 589 l 728 589 z "},"u":{"ha":1061,"x_min":0,"x_max":0,"o":"m 237 687 l 139 785 l 139 589 z m 237 490 l 139 589 l 139 392 z m 237 294 l 139 392 l 139 196 z m 434 687 l 335 785 l 335 589 z m 434 490 l 335 589 l 335 392 z m 434 294 l 335 392 l 335 196 z m 434 98 l 335 196 l 335 -1 z m 630 98 l 532 196 l 532 -1 z m 826 687 l 728 785 l 728 589 z m 826 490 l 728 589 l 728 392 z m 826 294 l 728 392 l 728 196 z m 826 98 l 728 196 l 728 -1 z m 237 687 l 139 589 l 335 589 z m 237 490 l 139 392 l 335 392 z m 237 294 l 139 196 l 335 196 z m 434 687 l 335 589 l 532 589 z m 434 490 l 335 392 l 532 392 z m 434 294 l 335 196 l 532 196 z m 434 98 l 335 -1 l 532 -1 z m 630 98 l 532 -1 l 728 -1 z m 826 687 l 728 589 l 925 589 z m 826 490 l 728 392 l 925 392 z m 826 294 l 728 196 l 925 196 z m 237 687 l 335 589 l 335 785 z m 237 490 l 335 392 l 335 589 z m 237 294 l 335 196 l 335 392 z m 434 687 l 532 589 l 532 785 z m 434 490 l 532 392 l 532 589 z m 434 294 l 532 196 l 532 392 z m 237 98 l 335 -1 l 335 196 z m 434 98 l 532 -1 l 532 196 z m 630 98 l 728 -1 l 728 196 z m 826 687 l 925 589 l 925 785 z m 826 490 l 925 392 l 925 589 z m 826 294 l 925 196 l 925 392 z m 237 687 l 335 785 l 139 785 z m 237 490 l 335 589 l 139 589 z m 237 294 l 335 392 l 139 392 z m 434 687 l 532 785 l 335 785 z m 434 490 l 532 589 l 335 589 z m 434 294 l 532 392 l 335 392 z m 237 98 l 335 196 l 139 196 z m 434 98 l 532 196 l 335 196 z m 630 98 l 728 196 l 532 196 z m 826 687 l 925 785 l 728 785 z m 826 490 l 925 589 l 728 589 z m 826 294 l 925 392 l 728 392 z m 826 98 l 925 196 l 728 196 z "},"v":{"ha":1061,"x_min":0,"x_max":0,"o":"m 237 687 l 139 785 l 139 589 z m 237 490 l 139 589 l 139 392 z m 434 490 l 335 589 l 335 392 z m 434 294 l 335 392 l 335 196 z m 630 294 l 532 392 l 532 196 z m 630 98 l 532 196 l 532 -1 z m 826 490 l 728 589 l 728 392 z m 826 294 l 728 392 l 728 196 z m 237 687 l 139 589 l 335 589 z m 237 490 l 139 392 l 335 392 z m 434 490 l 335 392 l 532 392 z m 434 294 l 335 196 l 532 196 z m 630 490 l 532 392 l 728 392 z m 630 294 l 532 196 l 728 196 z m 826 687 l 728 589 l 925 589 z m 826 490 l 728 392 l 925 392 z m 237 490 l 335 392 l 335 589 z m 237 294 l 335 196 l 335 392 z m 434 294 l 532 196 l 532 392 z m 434 98 l 532 -1 l 532 196 z m 630 490 l 728 392 l 728 589 z m 630 294 l 728 196 l 728 392 z m 826 687 l 925 589 l 925 785 z m 826 490 l 925 392 l 925 589 z m 237 490 l 335 589 l 139 589 z m 237 294 l 335 392 l 139 392 z m 434 294 l 532 392 l 335 392 z m 434 98 l 532 196 l 335 196 z m 630 294 l 728 392 l 532 392 z m 630 98 l 728 196 l 532 196 z m 826 490 l 925 589 l 728 589 z m 826 294 l 925 392 l 728 392 z "},"w":{"ha":1061,"x_min":0,"x_max":0,"o":"m 237 687 l 139 785 l 139 589 z m 237 490 l 139 589 l 139 392 z m 237 294 l 139 392 l 139 196 z m 237 98 l 139 196 l 139 -1 z m 434 294 l 335 392 l 335 196 z m 434 98 l 335 196 l 335 -1 z m 630 490 l 532 589 l 532 392 z m 630 294 l 532 392 l 532 196 z m 826 490 l 728 589 l 728 392 z m 826 294 l 728 392 l 728 196 z m 826 98 l 728 196 l 728 -1 z m 237 687 l 139 589 l 335 589 z m 237 490 l 139 392 l 335 392 z m 237 294 l 139 196 l 335 196 z m 237 98 l 139 -1 l 335 -1 z m 434 490 l 335 392 l 532 392 z m 434 294 l 335 196 l 532 196 z m 630 490 l 532 392 l 728 392 z m 630 294 l 532 196 l 728 196 z m 826 687 l 728 589 l 925 589 z m 826 490 l 728 392 l 925 392 z m 826 294 l 728 196 l 925 196 z m 826 98 l 728 -1 l 925 -1 z m 237 490 l 335 392 l 335 589 z m 237 294 l 335 196 l 335 392 z m 237 98 l 335 -1 l 335 196 z m 434 490 l 532 392 l 532 589 z m 434 294 l 532 196 l 532 392 z m 630 294 l 728 196 l 728 392 z m 630 98 l 728 -1 l 728 196 z m 826 687 l 925 589 l 925 785 z m 826 490 l 925 392 l 925 589 z m 826 294 l 925 196 l 925 392 z m 826 98 l 925 -1 l 925 196 z m 237 490 l 335 589 l 139 589 z m 237 294 l 335 392 l 139 392 z m 237 98 l 335 196 l 139 196 z m 434 294 l 532 392 l 335 392 z m 434 98 l 532 196 l 335 196 z m 630 294 l 728 392 l 532 392 z m 630 98 l 728 196 l 532 196 z m 826 490 l 925 589 l 728 589 z m 826 294 l 925 392 l 728 392 z m 826 98 l 925 196 l 728 196 z "},"x":{"ha":1061,"x_min":0,"x_max":0,"o":"m 237 687 l 139 785 l 139 589 z m 237 98 l 139 196 l 139 -1 z m 434 687 l 335 785 l 335 589 z m 434 490 l 335 589 l 335 392 z m 434 294 l 335 392 l 335 196 z m 434 98 l 335 196 l 335 -1 z m 630 490 l 532 589 l 532 392 z m 630 294 l 532 392 l 532 196 z m 826 687 l 728 785 l 728 589 z m 826 490 l 728 589 l 728 392 z m 826 294 l 728 392 l 728 196 z m 826 98 l 728 196 l 728 -1 z m 237 687 l 139 589 l 335 589 z m 237 294 l 139 196 l 335 196 z m 237 98 l 139 -1 l 335 -1 z m 434 687 l 335 589 l 532 589 z m 434 490 l 335 392 l 532 392 z m 434 294 l 335 196 l 532 196 z m 630 687 l 532 589 l 728 589 z m 630 490 l 532 392 l 728 392 z m 630 294 l 532 196 l 728 196 z m 826 687 l 728 589 l 925 589 z m 826 294 l 728 196 l 925 196 z m 826 98 l 728 -1 l 925 -1 z m 237 687 l 335 589 l 335 785 z m 237 490 l 335 392 l 335 589 z m 237 294 l 335 196 l 335 392 z m 237 98 l 335 -1 l 335 196 z m 434 490 l 532 392 l 532 589 z m 434 294 l 532 196 l 532 392 z m 630 687 l 728 589 l 728 785 z m 630 490 l 728 392 l 728 589 z m 630 294 l 728 196 l 728 392 z m 630 98 l 728 -1 l 728 196 z m 826 687 l 925 589 l 925 785 z m 826 98 l 925 -1 l 925 196 z m 237 687 l 335 785 l 139 785 z m 237 490 l 335 589 l 139 589 z m 237 98 l 335 196 l 139 196 z m 434 490 l 532 589 l 335 589 z m 434 294 l 532 392 l 335 392 z m 434 98 l 532 196 l 335 196 z m 630 490 l 728 589 l 532 589 z m 630 294 l 728 392 l 532 392 z m 630 98 l 728 196 l 532 196 z m 826 687 l 925 785 l 728 785 z m 826 490 l 925 589 l 728 589 z m 826 98 l 925 196 l 728 196 z "},"y":{"ha":1061,"x_min":0,"x_max":0,"o":"m 237 687 l 139 785 l 139 589 z m 237 98 l 139 196 l 139 -1 z m 434 687 l 335 785 l 335 589 z m 434 490 l 335 589 l 335 392 z m 434 294 l 335 392 l 335 196 z m 434 98 l 335 196 l 335 -1 z m 630 490 l 532 589 l 532 392 z m 630 294 l 532 392 l 532 196 z m 826 687 l 728 785 l 728 589 z m 826 490 l 728 589 l 728 392 z m 237 687 l 139 589 l 335 589 z m 237 294 l 139 196 l 335 196 z m 237 98 l 139 -1 l 335 -1 z m 434 687 l 335 589 l 532 589 z m 434 490 l 335 392 l 532 392 z m 434 294 l 335 196 l 532 196 z m 630 687 l 532 589 l 728 589 z m 630 490 l 532 392 l 728 392 z m 826 687 l 728 589 l 925 589 z m 237 687 l 335 589 l 335 785 z m 237 490 l 335 392 l 335 589 z m 237 294 l 335 196 l 335 392 z m 237 98 l 335 -1 l 335 196 z m 434 490 l 532 392 l 532 589 z m 434 294 l 532 196 l 532 392 z m 630 687 l 728 589 l 728 785 z m 630 490 l 728 392 l 728 589 z m 826 687 l 925 589 l 925 785 z m 237 687 l 335 785 l 139 785 z m 237 490 l 335 589 l 139 589 z m 237 98 l 335 196 l 139 196 z m 434 490 l 532 589 l 335 589 z m 434 294 l 532 392 l 335 392 z m 434 98 l 532 196 l 335 196 z m 630 490 l 728 589 l 532 589 z m 630 294 l 728 392 l 532 392 z m 826 687 l 925 785 l 728 785 z m 826 490 l 925 589 l 728 589 z "},"z":{"ha":1061,"x_min":0,"x_max":0,"o":"m 237 687 l 139 785 l 139 589 z m 237 490 l 139 589 l 139 392 z m 237 98 l 139 196 l 139 -1 z m 434 687 l 335 785 l 335 589 z m 630 687 l 532 785 l 532 589 z m 434 294 l 335 392 l 335 196 z m 434 98 l 335 196 l 335 -1 z m 630 490 l 532 589 l 532 392 z m 630 294 l 532 392 l 532 196 z m 826 687 l 728 785 l 728 589 z m 826 490 l 728 589 l 728 392 z m 826 98 l 728 196 l 728 -1 z m 237 687 l 139 589 l 335 589 z m 237 294 l 139 196 l 335 196 z m 237 98 l 139 -1 l 335 -1 z m 434 490 l 335 392 l 532 392 z m 434 294 l 335 196 l 532 196 z m 630 687 l 532 589 l 728 589 z m 630 490 l 532 392 l 728 392 z m 630 98 l 532 -1 l 728 -1 z m 434 98 l 335 -1 l 532 -1 z m 826 687 l 728 589 l 925 589 z m 826 294 l 728 196 l 925 196 z m 826 98 l 728 -1 l 925 -1 z m 237 687 l 335 589 l 335 785 z m 237 294 l 335 196 l 335 392 z m 237 98 l 335 -1 l 335 196 z m 434 490 l 532 392 l 532 589 z m 434 294 l 532 196 l 532 392 z m 630 687 l 728 589 l 728 785 z m 630 490 l 728 392 l 728 589 z m 630 98 l 728 -1 l 728 196 z m 434 98 l 532 -1 l 532 196 z m 826 687 l 925 589 l 925 785 z m 826 294 l 925 196 l 925 392 z m 826 98 l 925 -1 l 925 196 z m 237 687 l 335 785 l 139 785 z m 237 490 l 335 589 l 139 589 z m 237 98 l 335 196 l 139 196 z m 434 687 l 532 785 l 335 785 z m 630 687 l 728 785 l 532 785 z m 434 294 l 532 392 l 335 392 z m 434 98 l 532 196 l 335 196 z m 630 490 l 728 589 l 532 589 z m 630 294 l 728 392 l 532 392 z m 826 687 l 925 785 l 728 785 z m 826 490 l 925 589 l 728 589 z m 826 98 l 925 196 l 728 196 z "}}}
